<svg width="1214" height="336" xmlns="http://www.w3.org/2000/svg" xmlns:xlink="http://www.w3.org/1999/xlink" xml:space="preserve" overflow="hidden"><g transform="matrix(1 0 0 1 0 -140)"><g><g><g><path d="M268.849 136.159 249.874 155.157C280.925 186.221 280.925 236.284 249.874 266.777 218.823 297.856 168.798 297.856 138.322 266.777 107.271 235.713 107.271 185.65 138.322 155.157L187.486 105.958 194.386 99.0538 194.386 61.9353 120.21 136.159C78.8091 177.587 78.8091 244.333 120.21 285.762 161.611 327.19 228.312 327.19 268.85 285.762 310.251 244.054 310.251 177.587 268.85 136.159Z" fill="#EE4C2C" fill-rule="nonzero" fill-opacity="1" transform="matrix(1.00345 0 0 1 -30.3521 96.4302)"/><path d="M245.561 117.746C245.561 125.376 239.383 131.555 231.761 131.555 224.139 131.555 217.961 125.376 217.961 117.746 217.961 110.115 224.139 103.936 231.761 103.936 239.383 103.936 245.561 110.129 245.561 117.746Z" fill="#EE4C2C" fill-rule="nonzero" fill-opacity="1" transform="matrix(1.00345 0 0 1 -30.3521 96.4302)"/><path d="M191.984 163.85C191.024 161.18 189.577 158.682 187.682 156.492L192.236 148.567 178.698 140.837 174.145 148.761C171.3 148.25 168.405 148.266 165.617 148.794L161.007 140.901 147.526 148.736 152.136 156.62C151.226 157.691 150.388 158.851 149.665 160.117 148.941 161.382 148.364 162.68 147.9 164.01L138.746 164.042 138.803 179.609 147.957 179.576C148.918 182.244 150.364 184.734 152.259 186.925L147.705 194.857 161.243 202.588 165.796 194.655C168.641 195.173 171.536 195.158 174.324 194.631L178.927 202.522 192.406 194.687 187.805 186.803C188.715 185.724 189.553 184.564 190.276 183.306 191 182.041 191.577 180.736 192.041 179.405L201.195 179.373 201.138 163.806 191.984 163.847ZM183.592 179.495C179.292 186.999 169.699 189.603 162.17 185.304 154.641 181.012 152.03 171.441 156.34 163.93 160.649 156.42 170.242 153.816 177.771 158.115 185.291 162.414 187.903 171.986 183.592 179.497Z" fill="#EE4B2B" fill-rule="evenodd" fill-opacity="1" transform="matrix(1.00345 0 0 1 -30.3521 96.4302)"/><path d="M249.097 187.268C248.472 184.502 247.341 181.847 245.73 179.444L251.209 172.134 238.728 162.814 233.247 170.124C230.487 169.271 227.615 168.933 224.785 169.117L221.175 160.724 206.853 166.859 210.464 175.245C209.429 176.196 208.458 177.245 207.587 178.414 206.715 179.581 205.984 180.799 205.362 182.062L196.28 180.98 194.44 196.433 203.522 197.517C204.148 200.282 205.279 202.93 206.891 205.334L201.41 212.651 213.892 221.971 219.374 214.653C222.133 215.516 225.004 215.851 227.834 215.667L231.436 224.06 245.759 217.926 242.156 209.541C243.191 208.582 244.163 207.532 245.033 206.372 245.905 205.206 246.637 203.979 247.259 202.716L256.341 203.798 258.181 188.344 249.097 187.27ZM238.87 201.774C233.691 208.696 223.86 210.112 216.918 204.928 209.975 199.754 208.553 189.938 213.741 183.008 218.93 176.079 228.761 174.663 235.703 179.847 242.636 185.028 244.058 194.845 238.87 201.774Z" fill="#936E39" fill-rule="evenodd" fill-opacity="1" transform="matrix(1.00345 0 0 1 -30.3521 96.4302)"/><path d="M228.775 244.393C228.266 241.604 227.25 238.903 225.742 236.434L231.527 229.362 219.451 219.522 213.665 226.592C210.943 225.623 208.088 225.164 205.253 225.229L202.002 216.689 187.433 222.211 190.685 230.742C189.613 231.649 188.597 232.657 187.677 233.786 186.755 234.915 185.975 236.102 185.3 237.338L176.271 235.872 173.777 251.233 182.806 252.7C183.315 255.489 184.333 258.182 185.841 260.652L180.054 267.732 192.13 277.572 197.918 270.492C200.638 271.471 203.493 271.928 206.328 271.865L209.57 280.403 224.14 274.88 220.896 266.351C221.97 265.436 222.986 264.429 223.904 263.308 224.826 262.177 225.608 260.984 226.283 259.748L235.311 261.214 237.805 245.852 228.775 244.393ZM217.942 258.452C212.474 265.149 202.592 266.147 195.876 260.675 189.159 255.21 188.153 245.342 193.63 238.639 199.109 231.937 208.99 230.938 215.706 236.411 222.416 241.883 223.419 251.75 217.942 258.452Z" fill="#32862C" fill-rule="evenodd" fill-opacity="1" transform="matrix(1.00345 0 0 1 -30.3521 96.4302)"/><path d="M156.431 238.135 153.978 240.589C153.055 236.872 149.294 234.609 145.577 235.531 143.085 236.15 141.139 238.096 140.52 240.589L138.067 238.135 136.097 240.105 139.293 243.303 138.885 243.711 138.885 246.499 136.097 246.499 136.097 249.287 138.885 249.287 138.885 249.436C139.028 250.345 139.282 251.232 139.648 252.075L136.097 255.681 138.067 257.651 141.133 254.584C142.611 256.47 144.854 257.595 147.249 257.651 149.644 257.594 151.887 256.469 153.364 254.584L156.431 257.651 158.4 255.681 154.85 252.075C155.218 251.212 155.475 250.308 155.612 249.381L155.612 249.194 158.4 249.194 158.4 246.499 155.612 246.499 155.612 243.711 155.204 243.303 158.4 240.105 156.431 238.135ZM147.249 238.135C149.559 238.135 151.431 240.007 151.431 242.317L143.067 242.317C143.067 240.007 144.939 238.135 147.249 238.135ZM152.825 249.287C152.544 252.242 150.204 254.583 147.249 254.863 144.294 254.583 141.953 252.242 141.673 249.287L141.673 245.105 152.825 245.105 152.825 249.287ZM180.258 230.887 180.258 233.229 161.189 245.328 161.189 242.039 176.986 232.058 152.825 216.762 152.825 234.344C151.976 233.747 151.034 233.296 150.037 233.006L150.037 214.215 152.155 213.044 180.258 230.887Z" fill="#32862C" fill-rule="nonzero" fill-opacity="1" transform="matrix(1.00345 0 0 1 -30.3521 96.4302)"/><path d="M263.862 126.125C258.776 126.77 251.449 131.433 244.121 135.248 236.794 139.064 228.497 140.88 227.165 136.883 225.832 132.887 231.343 131.373 235.219 129.314 239.095 127.255 241.82 123.259 244.545 119.08 247.27 114.902 246.18 107.15 249.329 101.821 249.329 101.821 223.168 106.908 213.964 108.119 204.76 109.33 199.43 107.15 201.126 94.5541 202.821 81.9581 214.205 77.3568 228.497 74.2078 242.788 71.0588 256.353 70.575 270.887 77.3568 285.42 84.1385 339.194 131.373 339.194 215.223 339.036 294.445 272.933 359.546 192.649 359.546 112.365 359.546 46.1041 294.269 46.1041 214.94 46.1041 214.94 44.1663 170.613 85.8293 124.833 127.492 79.0517 180.659 53.4975 184.898 53.255 187.013 53.0196 180.638 60.0198 170.652 70.0564 160.047 80.7149 145.368 94.7953 132.456 107.271 107.385 131.494 79.2874 156.322 79.2874 211.791 79.2874 275.175 131.444 327.331 194.828 327.331 258.211 327.331 310.368 275.175 310.368 211.791 310.368 211.791 312.71 191.283 299.307 159.632 285.904 127.981 268.948 125.478 263.861 126.123Z" fill="#337AB2" fill-rule="nonzero" fill-opacity="1" transform="matrix(1.00345 0 0 1 -30.3521 96.4302)"/><path d="M251.495 82.9634C251.495 86.4945 249.99 89.3571 248.133 89.3571 246.277 89.3571 244.772 86.4945 244.772 82.9634 244.772 79.4326 246.277 76.57 248.133 76.57 249.99 76.57 251.495 79.4326 251.495 82.9634Z" fill="#243A59" fill-rule="nonzero" fill-opacity="1" transform="matrix(0.983139 -0.199511 0.200201 0.979756 -41.9564 147.619)"/><path d="M247.735 80.5352C247.735 81.4029 247.246 82.1061 246.643 82.1061 246.041 82.1061 245.552 81.4029 245.552 80.5352 245.552 79.6675 246.041 78.9639 246.643 78.9639 247.246 78.9639 247.735 79.6675 247.735 80.5352Z" fill="#FFD746" fill-rule="nonzero" fill-opacity="1" transform="matrix(0.995554 -0.124807 0.125238 0.992127 -38.5054 127.859)"/><path d="M65.8454 211.905C65.975 282.177 123.832 339.927 194.103 339.927 264.374 339.927 322.36 282.03 322.36 211.669 322.36 190.112 317.031 169.159 313.277 161.045 309.523 152.931 301.408 136.581 289.782 126.77 279.609 118.939 266.246 122.047 263.864 126.125 268.95 125.479 285.907 127.981 299.31 159.633 312.712 191.283 310.371 211.792 310.371 211.792 310.371 275.176 258.214 327.332 194.83 327.332 131.447 327.332 79.2901 275.176 79.2901 211.792 79.2901 156.324 107.388 131.496 132.459 107.273 145.371 94.7981 160.049 80.7163 170.655 70.0578 159.588 72.2716 124.466 101.701 115.988 109.453 107.51 117.205 87.0422 143.001 81.3489 152.447 75.6574 161.894 65.8468 181.865 65.8468 211.907Z" fill="#F6D042" fill-rule="nonzero" fill-opacity="1" transform="matrix(1.00345 0 0 1 -30.3521 96.4302)"/><text fill="#000000" fill-opacity="1" font-family="Arial,Arial_MSFontService,sans-serif" font-style="normal" font-variant="normal" font-weight="400" font-stretch="normal" font-size="825" text-anchor="start" direction="ltr" writing-mode="lr-tb" unicode-bidi="normal" text-decoration="none" transform="matrix(0.345377 0 0 0.344567 345.695 407)">depyf</text></g></g></g></g></svg>