<svg width="5757" height="1847" xmlns="http://www.w3.org/2000/svg" xmlns:xlink="http://www.w3.org/1999/xlink" xml:space="preserve" overflow="hidden"><g transform="translate(-641 -2855)"><g><path d="M4921 3664C4921 3550.23 5013.23 3458 5127 3458L6070 3458C6183.77 3458 6276 3550.23 6276 3664L6276 4488C6276 4601.77 6183.77 4694 6070 4694L5127 4694C5013.23 4694 4921 4601.77 4921 4488Z" stroke="#000000" stroke-width="8.02083" stroke-linecap="butt" stroke-linejoin="miter" stroke-miterlimit="8" stroke-opacity="1" fill="none" fill-rule="evenodd"/><path d="M5030.5 3653.5C5030.5 3617.6 5059.6 3588.5 5095.5 3588.5 5131.4 3588.5 5160.5 3617.6 5160.5 3653.5 5160.5 3689.4 5131.4 3718.5 5095.5 3718.5 5059.6 3718.5 5030.5 3689.4 5030.5 3653.5Z" stroke="#000000" stroke-width="4.58333" stroke-linecap="butt" stroke-linejoin="miter" stroke-miterlimit="8" stroke-opacity="1" fill="#FFFFFF" fill-rule="evenodd" fill-opacity="1"/><path d="M5187.5 3646.92 5294.5 3646.92 5294.5 3656.08 5187.5 3656.08ZM5289.92 3637.75 5317.42 3651.5 5289.92 3665.25Z" fill="#000000" fill-rule="nonzero" fill-opacity="1"/><text fill="#000000" fill-opacity="1" font-family="Calibri,Calibri_MSFontService,sans-serif" font-style="normal" font-variant="normal" font-weight="400" font-stretch="normal" font-size="83" text-anchor="start" direction="ltr" writing-mode="lr-tb" unicode-bidi="normal" text-decoration="none" transform="matrix(1 0 0 1 5408.27 3678)">Forward computation</text><path d="M5030.5 3870C5030.5 3834.38 5059.6 3805.5 5095.5 3805.5 5131.4 3805.5 5160.5 3834.38 5160.5 3870 5160.5 3905.62 5131.4 3934.5 5095.5 3934.5 5059.6 3934.5 5030.5 3905.62 5030.5 3870Z" stroke="#000000" stroke-width="4.58333" stroke-linecap="butt" stroke-linejoin="miter" stroke-miterlimit="8" stroke-opacity="1" fill="none" fill-rule="evenodd"/><path d="M5041.5 3871C5041.5 3841.45 5065.45 3817.5 5095 3817.5 5124.55 3817.5 5148.5 3841.45 5148.5 3871 5148.5 3900.55 5124.55 3924.5 5095 3924.5 5065.45 3924.5 5041.5 3900.55 5041.5 3871Z" stroke="#000000" stroke-width="4.58333" stroke-linecap="butt" stroke-linejoin="miter" stroke-miterlimit="8" stroke-opacity="1" fill="none" fill-rule="evenodd"/><text fill="#000000" fill-opacity="1" font-family="Calibri,Calibri_MSFontService,sans-serif" font-style="normal" font-variant="normal" font-weight="400" font-stretch="normal" font-size="83" text-anchor="start" direction="ltr" writing-mode="lr-tb" unicode-bidi="normal" text-decoration="none" transform="matrix(1 0 0 1 5333.27 3896)">Output node of forward</text><text fill="#000000" fill-opacity="1" font-family="Calibri,Calibri_MSFontService,sans-serif" font-style="normal" font-variant="normal" font-weight="400" font-stretch="normal" font-size="83" text-anchor="start" direction="ltr" writing-mode="lr-tb" unicode-bidi="normal" text-decoration="none" transform="matrix(1 0 0 1 5337.67 4550)">Save node for backward</text><path d="M5030.5 4093.5C5030.5 4057.6 5059.6 4028.5 5095.5 4028.5 5131.4 4028.5 5160.5 4057.6 5160.5 4093.5 5160.5 4129.4 5131.4 4158.5 5095.5 4158.5 5059.6 4158.5 5030.5 4129.4 5030.5 4093.5Z" stroke="#FF0000" stroke-width="4.58333" stroke-linecap="butt" stroke-linejoin="miter" stroke-miterlimit="8" stroke-opacity="1" fill="#FFFFFF" fill-rule="evenodd" fill-opacity="1"/><path d="M5194.5 4088.92 5301.5 4088.92 5301.5 4098.08 5194.5 4098.08ZM5296.92 4079.75 5324.42 4093.5 5296.92 4107.25Z" fill="#FF0000" fill-rule="nonzero" fill-opacity="1"/><text fill="#000000" fill-opacity="1" font-family="Calibri,Calibri_MSFontService,sans-serif" font-style="normal" font-variant="normal" font-weight="400" font-stretch="normal" font-size="83" text-anchor="start" direction="ltr" writing-mode="lr-tb" unicode-bidi="normal" text-decoration="none" transform="matrix(1 0 0 1 5366.25 4119)">Backward computation</text><text fill="#000000" fill-opacity="1" font-family="Calibri,Calibri_MSFontService,sans-serif" font-style="normal" font-variant="normal" font-weight="400" font-stretch="normal" font-size="83" text-anchor="start" direction="ltr" writing-mode="lr-tb" unicode-bidi="normal" text-decoration="none" transform="matrix(1 0 0 1 5277.57 4332)">Output node of backward</text><path d="M5112.49 4582.17 5104.95 4572.78 5099.06 4562.67 5097.14 4558.48 5103.39 4555.62 5105.24 4559.65 5105.08 4559.35 5110.76 4569.1 5110.47 4568.68 5117.85 4577.87ZM5089.84 4538.53 5087.85 4530.26 5086.25 4518.98 5085.88 4510.73 5092.75 4510.41 5093.11 4518.51 5093.08 4518.18 5094.63 4529.14 5094.57 4528.81 5096.52 4536.92ZM5087.3 4489.53 5087.99 4484.87 5090.77 4473.69 5094.66 4462.74 5094.94 4462.14 5101.16 4465.08 5100.95 4465.52 5101.08 4465.2 5097.3 4475.83 5097.4 4475.51 5094.7 4486.36 5094.76 4486.04 5094.1 4490.53ZM5104.76 4443.64 5105.82 4441.88 5112.99 4432.29 5118.49 4436.41 5111.43 4445.86 5111.62 4445.57 5110.65 4447.19ZM5122.04 4567.26 5130.87 4596.71 5102.01 4586.1Z" fill="#FF0000" fill-rule="nonzero" fill-opacity="1"/><path d="M5030.5 4305.5C5030.5 4269.6 5059.6 4240.5 5095.5 4240.5 5131.4 4240.5 5160.5 4269.6 5160.5 4305.5 5160.5 4341.4 5131.4 4370.5 5095.5 4370.5 5059.6 4370.5 5030.5 4341.4 5030.5 4305.5Z" stroke="#FF0000" stroke-width="4.58333" stroke-linecap="butt" stroke-linejoin="miter" stroke-miterlimit="8" stroke-opacity="1" fill="none" fill-rule="evenodd"/><path d="M5041.5 4306.5C5041.5 4277.23 5065.45 4253.5 5095 4253.5 5124.55 4253.5 5148.5 4277.23 5148.5 4306.5 5148.5 4335.77 5124.55 4359.5 5095 4359.5 5065.45 4359.5 5041.5 4335.77 5041.5 4306.5Z" stroke="#FF0000" stroke-width="4.58333" stroke-linecap="butt" stroke-linejoin="miter" stroke-miterlimit="8" stroke-opacity="1" fill="none" fill-rule="evenodd"/><path d="M1137.5 3191.92 1270.49 3191.92 1270.49 3201.08 1137.5 3201.08ZM1265.91 3182.75 1293.41 3196.5 1265.91 3210.25Z" fill="#000000" fill-rule="nonzero" fill-opacity="1"/><rect x="1308.5" y="3114.5" width="663" height="164" stroke="#172C51" stroke-width="4.58333" stroke-linecap="butt" stroke-linejoin="miter" stroke-miterlimit="8" stroke-opacity="1" fill="none"/><text fill="#000000" fill-opacity="1" font-family="Cambria Math,Cambria Math_MSFontService,sans-serif" font-style="normal" font-variant="normal" font-weight="400" font-stretch="normal" font-size="83" text-anchor="start" direction="ltr" writing-mode="lr-tb" unicode-bidi="normal" text-decoration="none" transform="matrix(1 0 0 1 1402.58 3227)">ğ‘¥</text><text fill="#000000" fill-opacity="1" font-family="Cambria Math,Cambria Math_MSFontService,sans-serif" font-style="normal" font-variant="normal" font-weight="400" font-stretch="normal" font-size="61" text-anchor="start" direction="ltr" writing-mode="lr-tb" unicode-bidi="normal" text-decoration="none" transform="matrix(1 0 0 1 1443.99 3244)">1</text><text fill="#000000" fill-opacity="1" font-family="Cambria Math,Cambria Math_MSFontService,sans-serif" font-style="normal" font-variant="normal" font-weight="400" font-stretch="normal" font-size="83" text-anchor="start" direction="ltr" writing-mode="lr-tb" unicode-bidi="normal" text-decoration="none" transform="matrix(1 0 0 1 1505.26 3227)">=</text><text fill="#000000" fill-opacity="1" font-family="Cambria Math,Cambria Math_MSFontService,sans-serif" font-style="normal" font-variant="normal" font-weight="400" font-stretch="normal" font-size="83" text-anchor="start" direction="ltr" writing-mode="lr-tb" unicode-bidi="normal" text-decoration="none" transform="matrix(1 0 0 1 1590.06 3227)">cos</text><text fill="#000000" fill-opacity="1" font-family="Cambria Math,Cambria Math_MSFontService,sans-serif" font-style="normal" font-variant="normal" font-weight="400" font-stretch="normal" font-size="83" text-anchor="start" direction="ltr" writing-mode="lr-tb" unicode-bidi="normal" text-decoration="none" transform="matrix(1 0 0 1 1705.21 3227)">â¡</text><text fill="#000000" fill-opacity="1" font-family="Cambria Math,Cambria Math_MSFontService,sans-serif" font-style="normal" font-variant="normal" font-weight="400" font-stretch="normal" font-size="83" text-anchor="start" direction="ltr" writing-mode="lr-tb" unicode-bidi="normal" text-decoration="none" transform="matrix(1 0 0 1 1705.21 3227)">(</text><text fill="#000000" fill-opacity="1" font-family="Cambria Math,Cambria Math_MSFontService,sans-serif" font-style="normal" font-variant="normal" font-weight="400" font-stretch="normal" font-size="83" text-anchor="start" direction="ltr" writing-mode="lr-tb" unicode-bidi="normal" text-decoration="none" transform="matrix(1 0 0 1 1739.59 3227)">ğ‘¥</text><text fill="#000000" fill-opacity="1" font-family="Cambria Math,Cambria Math_MSFontService,sans-serif" font-style="normal" font-variant="normal" font-weight="400" font-stretch="normal" font-size="61" text-anchor="start" direction="ltr" writing-mode="lr-tb" unicode-bidi="normal" text-decoration="none" transform="matrix(1 0 0 1 1782.9 3244)">0</text><text fill="#000000" fill-opacity="1" font-family="Cambria Math,Cambria Math_MSFontService,sans-serif" font-style="normal" font-variant="normal" font-weight="400" font-stretch="normal" font-size="83" text-anchor="start" direction="ltr" writing-mode="lr-tb" unicode-bidi="normal" text-decoration="none" transform="matrix(1 0 0 1 1821.26 3227)">)</text><path d="M1990.5 3191.92 2123.49 3191.92 2123.49 3201.08 1990.5 3201.08ZM2118.91 3182.75 2146.41 3196.5 2118.91 3210.25Z" fill="#000000" fill-rule="nonzero" fill-opacity="1"/><path d="M846.5 3204C846.5 3128.61 907.613 3067.5 983 3067.5 1058.39 3067.5 1119.5 3128.61 1119.5 3204 1119.5 3279.39 1058.39 3340.5 983 3340.5 907.613 3340.5 846.5 3279.39 846.5 3204Z" stroke="#000000" stroke-width="6.875" stroke-linecap="butt" stroke-linejoin="miter" stroke-miterlimit="8" stroke-opacity="1" fill="none" fill-rule="evenodd"/><text fill="#000000" fill-opacity="1" font-family="Times New Roman,Times New Roman_MSFontService,sans-serif" font-style="normal" font-variant="normal" font-weight="700" font-stretch="normal" font-size="83" text-anchor="start" direction="ltr" writing-mode="lr-tb" unicode-bidi="normal" text-decoration="none" transform="matrix(1 0 0 1 947.803 3234)">x</text><text fill="#000000" fill-opacity="1" font-family="Times New Roman,Times New Roman_MSFontService,sans-serif" font-style="normal" font-variant="normal" font-weight="700" font-stretch="normal" font-size="55" text-anchor="start" direction="ltr" writing-mode="lr-tb" unicode-bidi="normal" text-decoration="none" transform="matrix(1 0 0 1 989.053 3254)">0</text><path d="M670.5 3191.92 803.489 3191.92 803.489 3201.08 670.5 3201.08ZM798.906 3182.75 826.406 3196.5 798.906 3210.25Z" fill="#000000" fill-rule="nonzero" fill-opacity="1"/><path d="M870.081 3524.39 863.126 3515.28 858.518 3507.99 854.639 3501.12 860.626 3497.74 864.464 3504.54 864.376 3504.39 868.856 3511.48 868.682 3511.23 875.545 3520.21ZM845.907 3481.8 841.558 3469.57 837.962 3455.16 844.633 3453.5 848.188 3467.74 848.092 3467.42 852.385 3479.5ZM834.928 3434.11 834.21 3420.54 834.817 3406.32 841.686 3406.61 841.086 3420.67 841.085 3420.34 841.793 3433.75ZM837.759 3385.26 841.059 3371.44 845.492 3358.56 851.993 3360.79 847.614 3373.52 847.707 3373.2 844.446 3386.86ZM854.128 3339.2 857.627 3332.85 862.126 3325.57 867.02 3318.47 869.201 3315.62 874.658 3319.81 872.529 3322.58 872.631 3322.44 867.835 3329.4 867.929 3329.26 863.521 3336.39 863.607 3336.24 860.149 3342.52ZM882.849 3299.72 884.009 3298.49 889.016 3303.2 887.856 3304.43ZM880.269 3509.87 887.728 3539.7 859.391 3527.77Z" fill="#FF0000" fill-rule="nonzero" fill-opacity="1"/><path d="M2157.5 4111C2157.5 4035.61 2218.61 3974.5 2294 3974.5 2369.39 3974.5 2430.5 4035.61 2430.5 4111 2430.5 4186.39 2369.39 4247.5 2294 4247.5 2218.61 4247.5 2157.5 4186.39 2157.5 4111Z" stroke="#FF0000" stroke-width="6.875" stroke-linecap="butt" stroke-linejoin="miter" stroke-miterlimit="8" stroke-opacity="1" fill="#FFFFFF" fill-rule="evenodd" fill-opacity="1"/><text fill="#FF0000" fill-opacity="1" font-family="Cambria Math,Cambria Math_MSFontService,sans-serif" font-style="normal" font-variant="normal" font-weight="400" font-stretch="normal" font-size="83" text-anchor="start" direction="ltr" writing-mode="lr-tb" unicode-bidi="normal" text-decoration="none" transform="matrix(1 0 0 1 2234.86 4141)">âˆ‡</text><text fill="#FF0000" fill-opacity="1" font-family="Times New Roman,Times New Roman_MSFontService,sans-serif" font-style="normal" font-variant="normal" font-weight="700" font-stretch="normal" font-size="83" text-anchor="start" direction="ltr" writing-mode="lr-tb" unicode-bidi="normal" text-decoration="none" transform="matrix(1 0 0 1 2284.13 4141)">x</text><text fill="#FF0000" fill-opacity="1" font-family="Times New Roman,Times New Roman_MSFontService,sans-serif" font-style="normal" font-variant="normal" font-weight="700" font-stretch="normal" font-size="55" text-anchor="start" direction="ltr" writing-mode="lr-tb" unicode-bidi="normal" text-decoration="none" transform="matrix(1 0 0 1 2325.38 4161)">1</text><path d="M2160.5 3202C2160.5 3126.61 2221.61 3065.5 2297 3065.5 2372.39 3065.5 2433.5 3126.61 2433.5 3202 2433.5 3277.39 2372.39 3338.5 2297 3338.5 2221.61 3338.5 2160.5 3277.39 2160.5 3202Z" stroke="#000000" stroke-width="6.875" stroke-linecap="butt" stroke-linejoin="miter" stroke-miterlimit="8" stroke-opacity="1" fill="none" fill-rule="evenodd"/><text fill="#000000" fill-opacity="1" font-family="Times New Roman,Times New Roman_MSFontService,sans-serif" font-style="normal" font-variant="normal" font-weight="700" font-stretch="normal" font-size="83" text-anchor="start" direction="ltr" writing-mode="lr-tb" unicode-bidi="normal" text-decoration="none" transform="matrix(1 0 0 1 2262.1 3232)">x</text><text fill="#000000" fill-opacity="1" font-family="Times New Roman,Times New Roman_MSFontService,sans-serif" font-style="normal" font-variant="normal" font-weight="700" font-stretch="normal" font-size="55" text-anchor="start" direction="ltr" writing-mode="lr-tb" unicode-bidi="normal" text-decoration="none" transform="matrix(1 0 0 1 2303.35 3252)">1</text><path d="M3479.5 3197C3479.5 3121.61 3540.61 3060.5 3616 3060.5 3691.39 3060.5 3752.5 3121.61 3752.5 3197 3752.5 3272.39 3691.39 3333.5 3616 3333.5 3540.61 3333.5 3479.5 3272.39 3479.5 3197Z" stroke="#000000" stroke-width="6.875" stroke-linecap="butt" stroke-linejoin="miter" stroke-miterlimit="8" stroke-opacity="1" fill="none" fill-rule="evenodd"/><text fill="#000000" fill-opacity="1" font-family="Times New Roman,Times New Roman_MSFontService,sans-serif" font-style="normal" font-variant="normal" font-weight="700" font-stretch="normal" font-size="83" text-anchor="start" direction="ltr" writing-mode="lr-tb" unicode-bidi="normal" text-decoration="none" transform="matrix(1 0 0 1 3581.13 3227)">x</text><text fill="#000000" fill-opacity="1" font-family="Times New Roman,Times New Roman_MSFontService,sans-serif" font-style="normal" font-variant="normal" font-weight="700" font-stretch="normal" font-size="55" text-anchor="start" direction="ltr" writing-mode="lr-tb" unicode-bidi="normal" text-decoration="none" transform="matrix(1 0 0 1 3622.38 3247)">2</text><path d="M2454.5 3191.92 2587.49 3191.92 2587.49 3201.08 2454.5 3201.08ZM2582.91 3182.75 2610.41 3196.5 2582.91 3210.25Z" fill="#000000" fill-rule="nonzero" fill-opacity="1"/><rect x="2625.5" y="3114.5" width="663" height="164" stroke="#172C51" stroke-width="4.58333" stroke-linecap="butt" stroke-linejoin="miter" stroke-miterlimit="8" stroke-opacity="1" fill="none"/><text fill="#000000" fill-opacity="1" font-family="Cambria Math,Cambria Math_MSFontService,sans-serif" font-style="normal" font-variant="normal" font-weight="400" font-stretch="normal" font-size="83" text-anchor="start" direction="ltr" writing-mode="lr-tb" unicode-bidi="normal" text-decoration="none" transform="matrix(1 0 0 1 2719.54 3227)">ğ‘¥</text><text fill="#000000" fill-opacity="1" font-family="Cambria Math,Cambria Math_MSFontService,sans-serif" font-style="normal" font-variant="normal" font-weight="400" font-stretch="normal" font-size="61" text-anchor="start" direction="ltr" writing-mode="lr-tb" unicode-bidi="normal" text-decoration="none" transform="matrix(1 0 0 1 2762.85 3244)">2</text><text fill="#000000" fill-opacity="1" font-family="Cambria Math,Cambria Math_MSFontService,sans-serif" font-style="normal" font-variant="normal" font-weight="400" font-stretch="normal" font-size="83" text-anchor="start" direction="ltr" writing-mode="lr-tb" unicode-bidi="normal" text-decoration="none" transform="matrix(1 0 0 1 2824.13 3227)">=</text><text fill="#000000" fill-opacity="1" font-family="Cambria Math,Cambria Math_MSFontService,sans-serif" font-style="normal" font-variant="normal" font-weight="400" font-stretch="normal" font-size="83" text-anchor="start" direction="ltr" writing-mode="lr-tb" unicode-bidi="normal" text-decoration="none" transform="matrix(1 0 0 1 2908.93 3227)">cos</text><text fill="#000000" fill-opacity="1" font-family="Cambria Math,Cambria Math_MSFontService,sans-serif" font-style="normal" font-variant="normal" font-weight="400" font-stretch="normal" font-size="83" text-anchor="start" direction="ltr" writing-mode="lr-tb" unicode-bidi="normal" text-decoration="none" transform="matrix(1 0 0 1 3024.08 3227)">â¡</text><text fill="#000000" fill-opacity="1" font-family="Cambria Math,Cambria Math_MSFontService,sans-serif" font-style="normal" font-variant="normal" font-weight="400" font-stretch="normal" font-size="83" text-anchor="start" direction="ltr" writing-mode="lr-tb" unicode-bidi="normal" text-decoration="none" transform="matrix(1 0 0 1 3024.08 3227)">(</text><text fill="#000000" fill-opacity="1" font-family="Cambria Math,Cambria Math_MSFontService,sans-serif" font-style="normal" font-variant="normal" font-weight="400" font-stretch="normal" font-size="83" text-anchor="start" direction="ltr" writing-mode="lr-tb" unicode-bidi="normal" text-decoration="none" transform="matrix(1 0 0 1 3058.46 3227)">ğ‘¥</text><text fill="#000000" fill-opacity="1" font-family="Cambria Math,Cambria Math_MSFontService,sans-serif" font-style="normal" font-variant="normal" font-weight="400" font-stretch="normal" font-size="61" text-anchor="start" direction="ltr" writing-mode="lr-tb" unicode-bidi="normal" text-decoration="none" transform="matrix(1 0 0 1 3099.87 3244)">1</text><text fill="#000000" fill-opacity="1" font-family="Cambria Math,Cambria Math_MSFontService,sans-serif" font-style="normal" font-variant="normal" font-weight="400" font-stretch="normal" font-size="83" text-anchor="start" direction="ltr" writing-mode="lr-tb" unicode-bidi="normal" text-decoration="none" transform="matrix(1 0 0 1 3138.23 3227)">)</text><path d="M3307.5 3191.92 3440.49 3191.92 3440.49 3201.08 3307.5 3201.08ZM3435.91 3182.75 3463.41 3196.5 3435.91 3210.25Z" fill="#000000" fill-rule="nonzero" fill-opacity="1"/><path d="M3771.5 3192.92 3904.49 3192.92 3904.49 3202.08 3771.5 3202.08ZM3899.91 3183.75 3927.41 3197.5 3899.91 3211.25Z" fill="#000000" fill-rule="nonzero" fill-opacity="1"/><rect x="3942.5" y="3115.5" width="663" height="164" stroke="#172C51" stroke-width="4.58333" stroke-linecap="butt" stroke-linejoin="miter" stroke-miterlimit="8" stroke-opacity="1" fill="none"/><text fill="#000000" fill-opacity="1" font-family="Cambria Math,Cambria Math_MSFontService,sans-serif" font-style="normal" font-variant="normal" font-weight="400" font-stretch="normal" font-size="83" text-anchor="start" direction="ltr" writing-mode="lr-tb" unicode-bidi="normal" text-decoration="none" transform="matrix(1 0 0 1 3991.15 3228)">ğ‘¥</text><text fill="#000000" fill-opacity="1" font-family="Cambria Math,Cambria Math_MSFontService,sans-serif" font-style="normal" font-variant="normal" font-weight="400" font-stretch="normal" font-size="61" text-anchor="start" direction="ltr" writing-mode="lr-tb" unicode-bidi="normal" text-decoration="none" transform="matrix(1 0 0 1 4034.47 3244)">3</text><text fill="#000000" fill-opacity="1" font-family="Cambria Math,Cambria Math_MSFontService,sans-serif" font-style="normal" font-variant="normal" font-weight="400" font-stretch="normal" font-size="83" text-anchor="start" direction="ltr" writing-mode="lr-tb" unicode-bidi="normal" text-decoration="none" transform="matrix(1 0 0 1 4095.74 3228)">=</text><text fill="#000000" fill-opacity="1" font-family="Cambria Math,Cambria Math_MSFontService,sans-serif" font-style="normal" font-variant="normal" font-weight="400" font-stretch="normal" font-size="83" text-anchor="start" direction="ltr" writing-mode="lr-tb" unicode-bidi="normal" text-decoration="none" transform="matrix(1 0 0 1 4180.54 3228)">m</text><text fill="#000000" fill-opacity="1" font-family="Cambria Math,Cambria Math_MSFontService,sans-serif" font-style="normal" font-variant="normal" font-weight="400" font-stretch="normal" font-size="83" text-anchor="start" direction="ltr" writing-mode="lr-tb" unicode-bidi="normal" text-decoration="none" transform="matrix(1 0 0 1 4249.29 3228)">ğ‘’ğ‘ğ‘›</text><text fill="#000000" fill-opacity="1" font-family="Cambria Math,Cambria Math_MSFontService,sans-serif" font-style="normal" font-variant="normal" font-weight="400" font-stretch="normal" font-size="83" text-anchor="start" direction="ltr" writing-mode="lr-tb" unicode-bidi="normal" text-decoration="none" transform="matrix(1 0 0 1 4384.77 3228)">â¡</text><text fill="#000000" fill-opacity="1" font-family="Cambria Math,Cambria Math_MSFontService,sans-serif" font-style="normal" font-variant="normal" font-weight="400" font-stretch="normal" font-size="83" text-anchor="start" direction="ltr" writing-mode="lr-tb" unicode-bidi="normal" text-decoration="none" transform="matrix(1 0 0 1 4384.77 3228)">(</text><text fill="#000000" fill-opacity="1" font-family="Cambria Math,Cambria Math_MSFontService,sans-serif" font-style="normal" font-variant="normal" font-weight="400" font-stretch="normal" font-size="83" text-anchor="start" direction="ltr" writing-mode="lr-tb" unicode-bidi="normal" text-decoration="none" transform="matrix(1 0 0 1 4419.14 3228)">ğ‘¥</text><text fill="#000000" fill-opacity="1" font-family="Cambria Math,Cambria Math_MSFontService,sans-serif" font-style="normal" font-variant="normal" font-weight="400" font-stretch="normal" font-size="61" text-anchor="start" direction="ltr" writing-mode="lr-tb" unicode-bidi="normal" text-decoration="none" transform="matrix(1 0 0 1 4462.46 3244)">2</text><text fill="#000000" fill-opacity="1" font-family="Cambria Math,Cambria Math_MSFontService,sans-serif" font-style="normal" font-variant="normal" font-weight="400" font-stretch="normal" font-size="83" text-anchor="start" direction="ltr" writing-mode="lr-tb" unicode-bidi="normal" text-decoration="none" transform="matrix(1 0 0 1 4500.82 3228)">)</text><path d="M4624.5 3192.92 4757.49 3192.92 4757.49 3202.08 4624.5 3202.08ZM4752.91 3183.75 4780.41 3197.5 4752.91 3211.25Z" fill="#000000" fill-rule="nonzero" fill-opacity="1"/><path d="M4798.5 3197C4798.5 3121.61 4859.61 3060.5 4935 3060.5 5010.39 3060.5 5071.5 3121.61 5071.5 3197 5071.5 3272.39 5010.39 3333.5 4935 3333.5 4859.61 3333.5 4798.5 3272.39 4798.5 3197Z" stroke="#000000" stroke-width="6.875" stroke-linecap="butt" stroke-linejoin="miter" stroke-miterlimit="8" stroke-opacity="1" fill="none" fill-rule="evenodd"/><text fill="#000000" fill-opacity="1" font-family="Times New Roman,Times New Roman_MSFontService,sans-serif" font-style="normal" font-variant="normal" font-weight="700" font-stretch="normal" font-size="83" text-anchor="start" direction="ltr" writing-mode="lr-tb" unicode-bidi="normal" text-decoration="none" transform="matrix(1 0 0 1 4900.16 3227)">x</text><text fill="#000000" fill-opacity="1" font-family="Times New Roman,Times New Roman_MSFontService,sans-serif" font-style="normal" font-variant="normal" font-weight="700" font-stretch="normal" font-size="55" text-anchor="start" direction="ltr" writing-mode="lr-tb" unicode-bidi="normal" text-decoration="none" transform="matrix(1 0 0 1 4941.41 3247)">3</text><path d="M5095.5 3191.92 5228.49 3191.92 5228.49 3201.08 5095.5 3201.08ZM5223.91 3182.75 5251.41 3196.5 5223.91 3210.25Z" fill="#000000" fill-rule="nonzero" fill-opacity="1"/><rect x="5266.5" y="3114.5" width="663" height="164" stroke="#172C51" stroke-width="4.58333" stroke-linecap="butt" stroke-linejoin="miter" stroke-miterlimit="8" stroke-opacity="1" fill="none"/><text fill="#000000" fill-opacity="1" font-family="Cambria Math,Cambria Math_MSFontService,sans-serif" font-style="normal" font-variant="normal" font-weight="400" font-stretch="normal" font-size="83" text-anchor="start" direction="ltr" writing-mode="lr-tb" unicode-bidi="normal" text-decoration="none" transform="matrix(1 0 0 1 5374.64 3227)">ğ‘¥</text><text fill="#000000" fill-opacity="1" font-family="Cambria Math,Cambria Math_MSFontService,sans-serif" font-style="normal" font-variant="normal" font-weight="400" font-stretch="normal" font-size="61" text-anchor="start" direction="ltr" writing-mode="lr-tb" unicode-bidi="normal" text-decoration="none" transform="matrix(1 0 0 1 5417.96 3244)">4</text><text fill="#000000" fill-opacity="1" font-family="Cambria Math,Cambria Math_MSFontService,sans-serif" font-style="normal" font-variant="normal" font-weight="400" font-stretch="normal" font-size="83" text-anchor="start" direction="ltr" writing-mode="lr-tb" unicode-bidi="normal" text-decoration="none" transform="matrix(1 0 0 1 5479.23 3227)">=</text><text fill="#000000" fill-opacity="1" font-family="Cambria Math,Cambria Math_MSFontService,sans-serif" font-style="normal" font-variant="normal" font-weight="400" font-stretch="normal" font-size="83" text-anchor="start" direction="ltr" writing-mode="lr-tb" unicode-bidi="normal" text-decoration="none" transform="matrix(1 0 0 1 5564.03 3227)">ğ‘¥</text><text fill="#000000" fill-opacity="1" font-family="Cambria Math,Cambria Math_MSFontService,sans-serif" font-style="normal" font-variant="normal" font-weight="400" font-stretch="normal" font-size="61" text-anchor="start" direction="ltr" writing-mode="lr-tb" unicode-bidi="normal" text-decoration="none" transform="matrix(1 0 0 1 5607.34 3244)">3</text><text fill="#000000" fill-opacity="1" font-family="Cambria Math,Cambria Math_MSFontService,sans-serif" font-style="normal" font-variant="normal" font-weight="400" font-stretch="normal" font-size="83" text-anchor="start" direction="ltr" writing-mode="lr-tb" unicode-bidi="normal" text-decoration="none" transform="matrix(1 0 0 1 5668.62 3227)">&gt;</text><text fill="#000000" fill-opacity="1" font-family="Cambria Math,Cambria Math_MSFontService,sans-serif" font-style="normal" font-variant="normal" font-weight="400" font-stretch="normal" font-size="83" text-anchor="start" direction="ltr" writing-mode="lr-tb" unicode-bidi="normal" text-decoration="none" transform="matrix(1 0 0 1 5753.41 3227)">0</text><path d="M5948.5 3191.92 6081.49 3191.92 6081.49 3201.08 5948.5 3201.08ZM6076.91 3182.75 6104.41 3196.5 6076.91 3210.25Z" fill="#000000" fill-rule="nonzero" fill-opacity="1"/><path d="M6121.5 3197C6121.5 3121.61 6182.61 3060.5 6258 3060.5 6333.39 3060.5 6394.5 3121.61 6394.5 3197 6394.5 3272.39 6333.39 3333.5 6258 3333.5 6182.61 3333.5 6121.5 3272.39 6121.5 3197Z" stroke="#000000" stroke-width="6.875" stroke-linecap="butt" stroke-linejoin="miter" stroke-miterlimit="8" stroke-opacity="1" fill="none" fill-rule="evenodd"/><text fill="#000000" fill-opacity="1" font-family="Times New Roman,Times New Roman_MSFontService,sans-serif" font-style="normal" font-variant="normal" font-weight="700" font-stretch="normal" font-size="83" text-anchor="start" direction="ltr" writing-mode="lr-tb" unicode-bidi="normal" text-decoration="none" transform="matrix(1 0 0 1 6222.89 3227)">x</text><text fill="#000000" fill-opacity="1" font-family="Times New Roman,Times New Roman_MSFontService,sans-serif" font-style="normal" font-variant="normal" font-weight="700" font-stretch="normal" font-size="55" text-anchor="start" direction="ltr" writing-mode="lr-tb" unicode-bidi="normal" text-decoration="none" transform="matrix(1 0 0 1 6264.14 3247)">4</text><path d="M6140.5 3196.5C6140.5 3131.88 6192.88 3079.5 6257.5 3079.5 6322.12 3079.5 6374.5 3131.88 6374.5 3196.5 6374.5 3261.12 6322.12 3313.5 6257.5 3313.5 6192.88 3313.5 6140.5 3261.12 6140.5 3196.5Z" stroke="#000000" stroke-width="4.58333" stroke-linecap="butt" stroke-linejoin="miter" stroke-miterlimit="8" stroke-opacity="1" fill="none" fill-rule="evenodd"/><path d="M3479.5 3656C3479.5 3580.61 3540.61 3519.5 3616 3519.5 3691.39 3519.5 3752.5 3580.61 3752.5 3656 3752.5 3731.39 3691.39 3792.5 3616 3792.5 3540.61 3792.5 3479.5 3731.39 3479.5 3656Z" stroke="#FF0000" stroke-width="6.875" stroke-linecap="butt" stroke-linejoin="miter" stroke-miterlimit="8" stroke-opacity="1" fill="#FFFFFF" fill-rule="evenodd" fill-opacity="1"/><text fill="#FF0000" fill-opacity="1" font-family="Cambria Math,Cambria Math_MSFontService,sans-serif" font-style="normal" font-variant="normal" font-weight="400" font-stretch="normal" font-size="83" text-anchor="start" direction="ltr" writing-mode="lr-tb" unicode-bidi="normal" text-decoration="none" transform="matrix(1 0 0 1 3556.49 3686)">âˆ‡</text><text fill="#FF0000" fill-opacity="1" font-family="Times New Roman,Times New Roman_MSFontService,sans-serif" font-style="normal" font-variant="normal" font-weight="700" font-stretch="normal" font-size="83" text-anchor="start" direction="ltr" writing-mode="lr-tb" unicode-bidi="normal" text-decoration="none" transform="matrix(1 0 0 1 3605.76 3686)">x</text><text fill="#FF0000" fill-opacity="1" font-family="Times New Roman,Times New Roman_MSFontService,sans-serif" font-style="normal" font-variant="normal" font-weight="700" font-stretch="normal" font-size="55" text-anchor="start" direction="ltr" writing-mode="lr-tb" unicode-bidi="normal" text-decoration="none" transform="matrix(1 0 0 1 3647.01 3706)">2</text><path d="M846.5 3660C846.5 3584.61 907.613 3523.5 983 3523.5 1058.39 3523.5 1119.5 3584.61 1119.5 3660 1119.5 3735.39 1058.39 3796.5 983 3796.5 907.613 3796.5 846.5 3735.39 846.5 3660Z" stroke="#FF0000" stroke-width="6.875" stroke-linecap="butt" stroke-linejoin="miter" stroke-miterlimit="8" stroke-opacity="1" fill="#FFFFFF" fill-rule="evenodd" fill-opacity="1"/><text fill="#FF0000" fill-opacity="1" font-family="Times New Roman,Times New Roman_MSFontService,sans-serif" font-style="normal" font-variant="normal" font-weight="700" font-stretch="normal" font-size="83" text-anchor="start" direction="ltr" writing-mode="lr-tb" unicode-bidi="normal" text-decoration="none" transform="matrix(1 0 0 1 947.803 3690)">x</text><text fill="#FF0000" fill-opacity="1" font-family="Times New Roman,Times New Roman_MSFontService,sans-serif" font-style="normal" font-variant="normal" font-weight="700" font-stretch="normal" font-size="55" text-anchor="start" direction="ltr" writing-mode="lr-tb" unicode-bidi="normal" text-decoration="none" transform="matrix(1 0 0 1 989.053 3710)">0</text><path d="M2160.5 3656C2160.5 3580.61 2221.61 3519.5 2297 3519.5 2372.39 3519.5 2433.5 3580.61 2433.5 3656 2433.5 3731.39 2372.39 3792.5 2297 3792.5 2221.61 3792.5 2160.5 3731.39 2160.5 3656Z" stroke="#FF0000" stroke-width="6.875" stroke-linecap="butt" stroke-linejoin="miter" stroke-miterlimit="8" stroke-opacity="1" fill="#FFFFFF" fill-rule="evenodd" fill-opacity="1"/><text fill="#FF0000" fill-opacity="1" font-family="Times New Roman,Times New Roman_MSFontService,sans-serif" font-style="normal" font-variant="normal" font-weight="700" font-stretch="normal" font-size="83" text-anchor="start" direction="ltr" writing-mode="lr-tb" unicode-bidi="normal" text-decoration="none" transform="matrix(1 0 0 1 2262.1 3686)">x</text><text fill="#FF0000" fill-opacity="1" font-family="Times New Roman,Times New Roman_MSFontService,sans-serif" font-style="normal" font-variant="normal" font-weight="700" font-stretch="normal" font-size="55" text-anchor="start" direction="ltr" writing-mode="lr-tb" unicode-bidi="normal" text-decoration="none" transform="matrix(1 0 0 1 2303.35 3706)">1</text><path d="M2957.67 3749.5 2957.67 4117.86 2465.42 4117.86 2465.42 4108.7 2953.09 4108.7 2948.51 4113.28 2948.51 3749.5ZM2470 4127.03 2442.5 4113.28 2470 4099.53Z" fill="#FF0000" fill-rule="nonzero" fill-opacity="1"/><path d="M2445.51 3651.92 2552.52 3652.18 2552.49 3661.35 2445.49 3661.08ZM2547.96 3643.01 2575.42 3656.83 2547.89 3670.51Z" fill="#FF0000" fill-rule="nonzero" fill-opacity="1"/><rect x="2581.5" y="3574.5" width="751" height="164" stroke="#FF0000" stroke-width="4.58333" stroke-linecap="butt" stroke-linejoin="miter" stroke-miterlimit="8" stroke-opacity="1" fill="none"/><text fill="#FF0000" fill-opacity="1" font-family="Cambria Math,Cambria Math_MSFontService,sans-serif" font-style="normal" font-variant="normal" font-weight="400" font-stretch="normal" font-size="83" text-anchor="start" direction="ltr" writing-mode="lr-tb" unicode-bidi="normal" text-decoration="none" transform="matrix(1 0 0 1 2604.94 3687)">âˆ‡</text><text fill="#FF0000" fill-opacity="1" font-family="Cambria Math,Cambria Math_MSFontService,sans-serif" font-style="normal" font-variant="normal" font-weight="400" font-stretch="normal" font-size="83" text-anchor="start" direction="ltr" writing-mode="lr-tb" unicode-bidi="normal" text-decoration="none" transform="matrix(1 0 0 1 2654.21 3687)">ğ‘¥</text><text fill="#FF0000" fill-opacity="1" font-family="Cambria Math,Cambria Math_MSFontService,sans-serif" font-style="normal" font-variant="normal" font-weight="400" font-stretch="normal" font-size="61" text-anchor="start" direction="ltr" writing-mode="lr-tb" unicode-bidi="normal" text-decoration="none" transform="matrix(1 0 0 1 2695.62 3704)">1</text><text fill="#FF0000" fill-opacity="1" font-family="Cambria Math,Cambria Math_MSFontService,sans-serif" font-style="normal" font-variant="normal" font-weight="400" font-stretch="normal" font-size="83" text-anchor="start" direction="ltr" writing-mode="lr-tb" unicode-bidi="normal" text-decoration="none" transform="matrix(1 0 0 1 2756.9 3687)">=</text><text fill="#FF0000" fill-opacity="1" font-family="Cambria Math,Cambria Math_MSFontService,sans-serif" font-style="normal" font-variant="normal" font-weight="400" font-stretch="normal" font-size="83" text-anchor="start" direction="ltr" writing-mode="lr-tb" unicode-bidi="normal" text-decoration="none" transform="matrix(1 0 0 1 2841.69 3687)">âˆ’</text><text fill="#FF0000" fill-opacity="1" font-family="Cambria Math,Cambria Math_MSFontService,sans-serif" font-style="normal" font-variant="normal" font-weight="400" font-stretch="normal" font-size="83" text-anchor="start" direction="ltr" writing-mode="lr-tb" unicode-bidi="normal" text-decoration="none" transform="matrix(1 0 0 1 2903.57 3687)">sin</text><text fill="#FF0000" fill-opacity="1" font-family="Cambria Math,Cambria Math_MSFontService,sans-serif" font-style="normal" font-variant="normal" font-weight="400" font-stretch="normal" font-size="83" text-anchor="start" direction="ltr" writing-mode="lr-tb" unicode-bidi="normal" text-decoration="none" transform="matrix(1 0 0 1 3007.84 3687)">â¡</text><text fill="#FF0000" fill-opacity="1" font-family="Cambria Math,Cambria Math_MSFontService,sans-serif" font-style="normal" font-variant="normal" font-weight="400" font-stretch="normal" font-size="83" text-anchor="start" direction="ltr" writing-mode="lr-tb" unicode-bidi="normal" text-decoration="none" transform="matrix(1 0 0 1 3007.84 3687)">(</text><text fill="#FF0000" fill-opacity="1" font-family="Cambria Math,Cambria Math_MSFontService,sans-serif" font-style="normal" font-variant="normal" font-weight="400" font-stretch="normal" font-size="83" text-anchor="start" direction="ltr" writing-mode="lr-tb" unicode-bidi="normal" text-decoration="none" transform="matrix(1 0 0 1 3042.21 3687)">ğ‘¥</text><text fill="#FF0000" fill-opacity="1" font-family="Cambria Math,Cambria Math_MSFontService,sans-serif" font-style="normal" font-variant="normal" font-weight="400" font-stretch="normal" font-size="61" text-anchor="start" direction="ltr" writing-mode="lr-tb" unicode-bidi="normal" text-decoration="none" transform="matrix(1 0 0 1 3083.62 3704)">1</text><text fill="#FF0000" fill-opacity="1" font-family="Cambria Math,Cambria Math_MSFontService,sans-serif" font-style="normal" font-variant="normal" font-weight="400" font-stretch="normal" font-size="83" text-anchor="start" direction="ltr" writing-mode="lr-tb" unicode-bidi="normal" text-decoration="none" transform="matrix(1 0 0 1 3121.99 3687)">)</text><text fill="#FF0000" fill-opacity="1" font-family="Cambria Math,Cambria Math_MSFontService,sans-serif" font-style="normal" font-variant="normal" font-weight="400" font-stretch="normal" font-size="83" text-anchor="start" direction="ltr" writing-mode="lr-tb" unicode-bidi="normal" text-decoration="none" transform="matrix(1 0 0 1 3156.36 3687)">âˆ‡</text><text fill="#FF0000" fill-opacity="1" font-family="Cambria Math,Cambria Math_MSFontService,sans-serif" font-style="normal" font-variant="normal" font-weight="400" font-stretch="normal" font-size="83" text-anchor="start" direction="ltr" writing-mode="lr-tb" unicode-bidi="normal" text-decoration="none" transform="matrix(1 0 0 1 3205.63 3687)">ğ‘¥</text><text fill="#FF0000" fill-opacity="1" font-family="Cambria Math,Cambria Math_MSFontService,sans-serif" font-style="normal" font-variant="normal" font-weight="400" font-stretch="normal" font-size="61" text-anchor="start" direction="ltr" writing-mode="lr-tb" unicode-bidi="normal" text-decoration="none" transform="matrix(1 0 0 1 3248.94 3704)">2</text><path d="M3362.42 3651.92 3469.42 3651.92 3469.42 3661.08 3362.42 3661.08ZM3367 3670.25 3339.5 3656.5 3367 3642.75Z" fill="#FF0000" fill-rule="nonzero" fill-opacity="1"/><path d="M1634.18 4205.5 1634.18 4573.86 1148.42 4573.86 1148.42 4564.7 1629.59 4564.7 1625.01 4569.28 1625.01 4205.5ZM1153 4583.03 1125.5 4569.28 1153 4555.53Z" fill="#FF0000" fill-rule="nonzero" fill-opacity="1"/><rect x="1250.5" y="4031.5" width="758" height="164" stroke="#FF0000" stroke-width="4.58333" stroke-linecap="butt" stroke-linejoin="miter" stroke-miterlimit="8" stroke-opacity="1" fill="none"/><text fill="#FF0000" fill-opacity="1" font-family="Cambria Math,Cambria Math_MSFontService,sans-serif" font-style="normal" font-variant="normal" font-weight="400" font-stretch="normal" font-size="83" text-anchor="start" direction="ltr" writing-mode="lr-tb" unicode-bidi="normal" text-decoration="none" transform="matrix(1 0 0 1 1276.91 4143)">âˆ‡</text><text fill="#FF0000" fill-opacity="1" font-family="Cambria Math,Cambria Math_MSFontService,sans-serif" font-style="normal" font-variant="normal" font-weight="400" font-stretch="normal" font-size="83" text-anchor="start" direction="ltr" writing-mode="lr-tb" unicode-bidi="normal" text-decoration="none" transform="matrix(1 0 0 1 1326.18 4143)">ğ‘¥</text><text fill="#FF0000" fill-opacity="1" font-family="Cambria Math,Cambria Math_MSFontService,sans-serif" font-style="normal" font-variant="normal" font-weight="400" font-stretch="normal" font-size="61" text-anchor="start" direction="ltr" writing-mode="lr-tb" unicode-bidi="normal" text-decoration="none" transform="matrix(1 0 0 1 1369.5 4160)">0</text><text fill="#FF0000" fill-opacity="1" font-family="Cambria Math,Cambria Math_MSFontService,sans-serif" font-style="normal" font-variant="normal" font-weight="400" font-stretch="normal" font-size="83" text-anchor="start" direction="ltr" writing-mode="lr-tb" unicode-bidi="normal" text-decoration="none" transform="matrix(1 0 0 1 1430.77 4143)">=</text><text fill="#FF0000" fill-opacity="1" font-family="Cambria Math,Cambria Math_MSFontService,sans-serif" font-style="normal" font-variant="normal" font-weight="400" font-stretch="normal" font-size="83" text-anchor="start" direction="ltr" writing-mode="lr-tb" unicode-bidi="normal" text-decoration="none" transform="matrix(1 0 0 1 1515.57 4143)">âˆ’</text><text fill="#FF0000" fill-opacity="1" font-family="Cambria Math,Cambria Math_MSFontService,sans-serif" font-style="normal" font-variant="normal" font-weight="400" font-stretch="normal" font-size="83" text-anchor="start" direction="ltr" writing-mode="lr-tb" unicode-bidi="normal" text-decoration="none" transform="matrix(1 0 0 1 1577.44 4143)">sin</text><text fill="#FF0000" fill-opacity="1" font-family="Cambria Math,Cambria Math_MSFontService,sans-serif" font-style="normal" font-variant="normal" font-weight="400" font-stretch="normal" font-size="83" text-anchor="start" direction="ltr" writing-mode="lr-tb" unicode-bidi="normal" text-decoration="none" transform="matrix(1 0 0 1 1681.71 4143)">â¡</text><text fill="#FF0000" fill-opacity="1" font-family="Cambria Math,Cambria Math_MSFontService,sans-serif" font-style="normal" font-variant="normal" font-weight="400" font-stretch="normal" font-size="83" text-anchor="start" direction="ltr" writing-mode="lr-tb" unicode-bidi="normal" text-decoration="none" transform="matrix(1 0 0 1 1681.71 4143)">(</text><text fill="#FF0000" fill-opacity="1" font-family="Cambria Math,Cambria Math_MSFontService,sans-serif" font-style="normal" font-variant="normal" font-weight="400" font-stretch="normal" font-size="83" text-anchor="start" direction="ltr" writing-mode="lr-tb" unicode-bidi="normal" text-decoration="none" transform="matrix(1 0 0 1 1716.09 4143)">ğ‘¥</text><text fill="#FF0000" fill-opacity="1" font-family="Cambria Math,Cambria Math_MSFontService,sans-serif" font-style="normal" font-variant="normal" font-weight="400" font-stretch="normal" font-size="61" text-anchor="start" direction="ltr" writing-mode="lr-tb" unicode-bidi="normal" text-decoration="none" transform="matrix(1 0 0 1 1759.4 4160)">0</text><text fill="#FF0000" fill-opacity="1" font-family="Cambria Math,Cambria Math_MSFontService,sans-serif" font-style="normal" font-variant="normal" font-weight="400" font-stretch="normal" font-size="83" text-anchor="start" direction="ltr" writing-mode="lr-tb" unicode-bidi="normal" text-decoration="none" transform="matrix(1 0 0 1 1797.76 4143)">)</text><text fill="#FF0000" fill-opacity="1" font-family="Cambria Math,Cambria Math_MSFontService,sans-serif" font-style="normal" font-variant="normal" font-weight="400" font-stretch="normal" font-size="83" text-anchor="start" direction="ltr" writing-mode="lr-tb" unicode-bidi="normal" text-decoration="none" transform="matrix(1 0 0 1 1832.14 4143)">âˆ‡</text><text fill="#FF0000" fill-opacity="1" font-family="Cambria Math,Cambria Math_MSFontService,sans-serif" font-style="normal" font-variant="normal" font-weight="400" font-stretch="normal" font-size="83" text-anchor="start" direction="ltr" writing-mode="lr-tb" unicode-bidi="normal" text-decoration="none" transform="matrix(1 0 0 1 1881.41 4143)">ğ‘¥</text><text fill="#FF0000" fill-opacity="1" font-family="Cambria Math,Cambria Math_MSFontService,sans-serif" font-style="normal" font-variant="normal" font-weight="400" font-stretch="normal" font-size="61" text-anchor="start" direction="ltr" writing-mode="lr-tb" unicode-bidi="normal" text-decoration="none" transform="matrix(1 0 0 1 1922.82 4160)">1</text><path d="M2039.42 4108.92 2146.42 4108.92 2146.42 4118.08 2039.42 4118.08ZM2044 4127.25 2016.5 4113.5 2044 4099.75Z" fill="#FF0000" fill-rule="nonzero" fill-opacity="1"/><path d="M846.5 4558.5C846.5 4483.39 907.613 4422.5 983 4422.5 1058.39 4422.5 1119.5 4483.39 1119.5 4558.5 1119.5 4633.61 1058.39 4694.5 983 4694.5 907.613 4694.5 846.5 4633.61 846.5 4558.5Z" stroke="#FF0000" stroke-width="6.875" stroke-linecap="butt" stroke-linejoin="miter" stroke-miterlimit="8" stroke-opacity="1" fill="#FFFFFF" fill-rule="evenodd" fill-opacity="1"/><text fill="#FF0000" fill-opacity="1" font-family="Cambria Math,Cambria Math_MSFontService,sans-serif" font-style="normal" font-variant="normal" font-weight="400" font-stretch="normal" font-size="83" text-anchor="start" direction="ltr" writing-mode="lr-tb" unicode-bidi="normal" text-decoration="none" transform="matrix(1 0 0 1 923.168 4589)">âˆ‡</text><text fill="#FF0000" fill-opacity="1" font-family="Times New Roman,Times New Roman_MSFontService,sans-serif" font-style="normal" font-variant="normal" font-weight="700" font-stretch="normal" font-size="83" text-anchor="start" direction="ltr" writing-mode="lr-tb" unicode-bidi="normal" text-decoration="none" transform="matrix(1 0 0 1 972.439 4589)">x</text><text fill="#FF0000" fill-opacity="1" font-family="Times New Roman,Times New Roman_MSFontService,sans-serif" font-style="normal" font-variant="normal" font-weight="700" font-stretch="normal" font-size="55" text-anchor="start" direction="ltr" writing-mode="lr-tb" unicode-bidi="normal" text-decoration="none" transform="matrix(1 0 0 1 1013.69 4609)">1</text><path d="M0-4.58333 311.198-4.58333 311.198 240.823 302.031 240.823 302.031 0 306.614 4.58333 0 4.58333ZM320.364 236.24 306.614 263.74 292.864 236.24Z" fill="#FF0000" fill-rule="nonzero" fill-opacity="1" transform="matrix(1.83697e-16 1 1 -1.83697e-16 975.5 3807.5)"/><path d="M3789.42 3651.92 3922.41 3651.92 3922.41 3661.08 3789.42 3661.08ZM3794 3670.25 3766.5 3656.5 3794 3642.75Z" fill="#FF0000" fill-rule="nonzero" fill-opacity="1"/><path d="M865.5 4558.5C865.5 4493.88 917.883 4441.5 982.5 4441.5 1047.12 4441.5 1099.5 4493.88 1099.5 4558.5 1099.5 4623.12 1047.12 4675.5 982.5 4675.5 917.883 4675.5 865.5 4623.12 865.5 4558.5Z" stroke="#FF0000" stroke-width="4.58333" stroke-linecap="butt" stroke-linejoin="miter" stroke-miterlimit="8" stroke-opacity="1" fill="none" fill-rule="evenodd"/><path d="M1137.5 3662.92 1270.49 3662.92 1270.49 3672.08 1137.5 3672.08ZM1265.91 3653.75 1293.41 3667.5 1265.91 3681.25Z" fill="#FF0000" fill-rule="nonzero" fill-opacity="1"/><rect x="1308.5" y="3585.5" width="663" height="164" stroke="#FF0000" stroke-width="4.58333" stroke-linecap="butt" stroke-linejoin="miter" stroke-miterlimit="8" stroke-opacity="1" fill="none"/><text fill="#FF0000" fill-opacity="1" font-family="Cambria Math,Cambria Math_MSFontService,sans-serif" font-style="normal" font-variant="normal" font-weight="400" font-stretch="normal" font-size="83" text-anchor="start" direction="ltr" writing-mode="lr-tb" unicode-bidi="normal" text-decoration="none" transform="matrix(1 0 0 1 1402.58 3697)">ğ‘¥</text><text fill="#FF0000" fill-opacity="1" font-family="Cambria Math,Cambria Math_MSFontService,sans-serif" font-style="normal" font-variant="normal" font-weight="400" font-stretch="normal" font-size="61" text-anchor="start" direction="ltr" writing-mode="lr-tb" unicode-bidi="normal" text-decoration="none" transform="matrix(1 0 0 1 1443.99 3714)">1</text><text fill="#FF0000" fill-opacity="1" font-family="Cambria Math,Cambria Math_MSFontService,sans-serif" font-style="normal" font-variant="normal" font-weight="400" font-stretch="normal" font-size="83" text-anchor="start" direction="ltr" writing-mode="lr-tb" unicode-bidi="normal" text-decoration="none" transform="matrix(1 0 0 1 1505.26 3697)">=</text><text fill="#FF0000" fill-opacity="1" font-family="Cambria Math,Cambria Math_MSFontService,sans-serif" font-style="normal" font-variant="normal" font-weight="400" font-stretch="normal" font-size="83" text-anchor="start" direction="ltr" writing-mode="lr-tb" unicode-bidi="normal" text-decoration="none" transform="matrix(1 0 0 1 1590.06 3697)">cos</text><text fill="#FF0000" fill-opacity="1" font-family="Cambria Math,Cambria Math_MSFontService,sans-serif" font-style="normal" font-variant="normal" font-weight="400" font-stretch="normal" font-size="83" text-anchor="start" direction="ltr" writing-mode="lr-tb" unicode-bidi="normal" text-decoration="none" transform="matrix(1 0 0 1 1705.21 3697)">â¡</text><text fill="#FF0000" fill-opacity="1" font-family="Cambria Math,Cambria Math_MSFontService,sans-serif" font-style="normal" font-variant="normal" font-weight="400" font-stretch="normal" font-size="83" text-anchor="start" direction="ltr" writing-mode="lr-tb" unicode-bidi="normal" text-decoration="none" transform="matrix(1 0 0 1 1705.21 3697)">(</text><text fill="#FF0000" fill-opacity="1" font-family="Cambria Math,Cambria Math_MSFontService,sans-serif" font-style="normal" font-variant="normal" font-weight="400" font-stretch="normal" font-size="83" text-anchor="start" direction="ltr" writing-mode="lr-tb" unicode-bidi="normal" text-decoration="none" transform="matrix(1 0 0 1 1739.59 3697)">ğ‘¥</text><text fill="#FF0000" fill-opacity="1" font-family="Cambria Math,Cambria Math_MSFontService,sans-serif" font-style="normal" font-variant="normal" font-weight="400" font-stretch="normal" font-size="61" text-anchor="start" direction="ltr" writing-mode="lr-tb" unicode-bidi="normal" text-decoration="none" transform="matrix(1 0 0 1 1782.9 3714)">0</text><text fill="#FF0000" fill-opacity="1" font-family="Cambria Math,Cambria Math_MSFontService,sans-serif" font-style="normal" font-variant="normal" font-weight="400" font-stretch="normal" font-size="83" text-anchor="start" direction="ltr" writing-mode="lr-tb" unicode-bidi="normal" text-decoration="none" transform="matrix(1 0 0 1 1821.26 3697)">)</text><path d="M1990.5 3662.92 2123.49 3662.92 2123.49 3672.08 1990.5 3672.08ZM2118.91 3653.75 2146.41 3667.5 2118.91 3681.25Z" fill="#FF0000" fill-rule="nonzero" fill-opacity="1"/><path d="M3498.5 3197.5C3498.5 3132.88 3550.88 3080.5 3615.5 3080.5 3680.12 3080.5 3732.5 3132.88 3732.5 3197.5 3732.5 3262.12 3680.12 3314.5 3615.5 3314.5 3550.88 3314.5 3498.5 3262.12 3498.5 3197.5Z" stroke="#000000" stroke-width="4.58333" stroke-linecap="butt" stroke-linejoin="miter" stroke-miterlimit="8" stroke-opacity="1" fill="none" fill-rule="evenodd"/><path d="M693.417 4564.92 826.406 4564.92 826.406 4574.08 693.417 4574.08ZM698 4583.25 670.5 4569.5 698 4555.75Z" fill="#FF0000" fill-rule="nonzero" fill-opacity="1"/><path d="M4.58333-1.06096e-05 4.58364 132.989-4.58303 132.989-4.58333 1.06096e-05ZM13.7503 128.405 0.000360892 155.906-13.7497 128.406Z" fill="#000000" fill-rule="nonzero" fill-opacity="1" transform="matrix(1 0 0 -1 3612.5 3040.41)"/><path d="M4.58333-1.06096e-05 4.58364 132.989-4.58303 132.989-4.58333 1.06096e-05ZM13.7503 128.405 0.000360892 155.906-13.7497 128.406Z" fill="#000000" fill-rule="nonzero" fill-opacity="1" transform="matrix(1 0 0 -1 6253.5 3040.41)"/></g></g></svg>