<svg width="270" height="271" xmlns="http://www.w3.org/2000/svg" xmlns:xlink="http://www.w3.org/1999/xlink" xml:space="preserve" overflow="hidden"><g transform="translate(-96 -150)"><g><g><g><g><g><g><g><g><path d="M226.91 114.918 210.895 130.953C237.102 157.172 237.102 199.425 210.895 225.161 184.688 251.392 142.467 251.392 116.744 225.161 90.5375 198.943 90.5375 156.689 116.744 130.953L158.239 89.4292 164.063 83.602 164.063 52.2737 101.458 114.918C66.5154 149.884 66.5154 206.218 101.458 241.184 136.4 276.15 192.697 276.15 226.911 241.184 261.853 205.983 261.853 149.884 226.911 114.918Z" fill="#EE4C2C" fill-rule="nonzero" fill-opacity="1" transform="matrix(1 0 0 1.0037 70.5994 110.941)"/><path d="M207.255 99.3779C207.255 105.818 202.041 111.034 195.607 111.034 189.174 111.034 183.96 105.818 183.96 99.3779 183.96 92.9376 189.174 87.7221 195.607 87.7221 202.041 87.7221 207.255 92.9494 207.255 99.3779Z" fill="#EE4C2C" fill-rule="nonzero" fill-opacity="1" transform="matrix(1 0 0 1.0037 70.5994 110.941)"/></g></g></g><path d="M162.036 138.29C161.225 136.037 160.004 133.929 158.405 132.08L162.248 125.392 150.822 118.867 146.98 125.555C144.578 125.124 142.135 125.138 139.782 125.582L135.891 118.921 124.513 125.534 128.404 132.189C127.635 133.092 126.928 134.071 126.318 135.139 125.707 136.207 125.22 137.303 124.828 138.425L117.102 138.452 117.15 151.59 124.876 151.563C125.687 153.815 126.908 155.916 128.507 157.766L124.664 164.46 136.09 170.985 139.932 164.29C142.334 164.727 144.777 164.714 147.13 164.27L151.015 170.93 162.392 164.317 158.508 157.662C159.277 156.752 159.984 155.773 160.594 154.712 161.205 153.643 161.692 152.542 162.084 151.419L169.81 151.392 169.762 138.253 162.036 138.288ZM154.953 151.495C151.323 157.828 143.227 160.026 136.872 156.398 130.518 152.775 128.314 144.697 131.952 138.358 135.589 132.019 143.685 129.821 150.04 133.45 156.387 137.078 158.591 145.157 154.953 151.496Z" fill="#EE4B2B" fill-rule="evenodd" fill-opacity="1" transform="matrix(1 0 0 1.0037 70.5994 110.941)"/><path d="M210.24 158.055C209.711 155.721 208.757 153.48 207.397 151.452L212.022 145.282 201.488 137.416 196.862 143.585C194.532 142.865 192.108 142.581 189.72 142.736L186.673 135.652 174.585 140.83 177.633 147.908C176.76 148.71 175.94 149.596 175.204 150.582 174.469 151.567 173.851 152.595 173.327 153.661L165.662 152.748 164.109 165.791 171.774 166.705C172.302 169.039 173.257 171.273 174.617 173.303L169.991 179.479 180.526 187.345 185.153 181.168C187.481 181.896 189.905 182.18 192.293 182.024L195.333 189.108 207.422 183.93 204.381 176.854C205.255 176.044 206.075 175.158 206.809 174.179 207.545 173.195 208.163 172.159 208.688 171.093L216.353 172.006 217.906 158.964 210.24 158.057ZM201.608 170.298C197.237 176.141 188.939 177.336 183.08 172.961 177.22 168.593 176.02 160.308 180.399 154.46 184.778 148.611 193.076 147.416 198.935 151.792 204.787 156.165 205.987 164.45 201.608 170.298Z" fill="#936E39" fill-rule="evenodd" fill-opacity="1" transform="matrix(1 0 0 1.0037 70.5994 110.941)"/><path d="M193.087 206.269C192.658 203.915 191.8 201.636 190.527 199.551L195.41 193.583 185.218 185.278 180.334 191.245C178.037 190.427 175.628 190.04 173.235 190.094L170.491 182.887 158.194 187.547 160.939 194.747C160.034 195.513 159.177 196.364 158.4 197.317 157.622 198.27 156.964 199.271 156.394 200.315L148.774 199.077 146.669 212.042 154.289 213.28C154.719 215.634 155.578 217.907 156.851 219.992L151.967 225.967 162.159 234.272 167.044 228.297C169.339 229.123 171.749 229.509 174.142 229.456L176.878 236.662 189.175 232.001 186.438 224.801C187.344 224.03 188.201 223.179 188.977 222.233 189.754 221.279 190.414 220.272 190.984 219.228L198.604 220.466 200.709 207.501 193.087 206.269ZM183.945 218.135C179.329 223.787 170.989 224.63 165.32 220.011 159.651 215.399 158.802 207.07 163.425 201.412 168.049 195.756 176.389 194.913 182.057 199.532 187.72 204.15 188.567 212.479 183.945 218.135Z" fill="#32862C" fill-rule="evenodd" fill-opacity="1" transform="matrix(1 0 0 1.0037 70.5994 110.941)"/><path d="M132.028 200.988 129.958 203.058C129.179 199.922 126.005 198.011 122.868 198.79 120.765 199.312 119.122 200.955 118.6 203.058L116.529 200.988 114.867 202.65 117.564 205.349 117.22 205.694 117.22 208.047 114.867 208.047 114.867 210.4 117.22 210.4 117.22 210.526C117.341 211.293 117.555 212.041 117.863 212.753L114.867 215.796 116.529 217.459 119.117 214.87C120.365 216.462 122.258 217.412 124.279 217.459 126.3 217.411 128.193 216.461 129.44 214.87L132.028 217.459 133.691 215.796 130.694 212.753C131.005 212.024 131.221 211.261 131.338 210.479L131.338 210.321 133.691 210.321 133.691 208.047 131.338 208.047 131.338 205.694 130.993 205.349 133.691 202.65 132.028 200.988ZM124.279 200.988C126.228 200.988 127.808 202.568 127.808 204.517L120.749 204.517C120.749 202.568 122.329 200.988 124.279 200.988ZM128.985 210.4C128.748 212.894 126.773 214.869 124.279 215.106 121.785 214.869 119.809 212.894 119.573 210.4L119.573 206.87 128.985 206.87 128.985 210.4ZM152.139 194.87 152.139 196.846 136.044 207.058 136.044 204.282 149.377 195.858 128.985 182.948 128.985 197.787C128.268 197.284 127.473 196.903 126.632 196.658L126.632 180.799 128.42 179.81 152.139 194.87Z" fill="#32862C" fill-rule="nonzero" fill-opacity="1" transform="matrix(1 0 0 1.0037 70.5994 110.941)"/></g></g><path d="M222.701 106.45C218.408 106.995 212.224 110.93 206.04 114.15 199.856 117.37 192.853 118.903 191.728 115.53 190.604 112.157 195.254 110.879 198.526 109.142 201.797 107.404 204.097 104.031 206.397 100.504 208.697 96.9778 207.777 90.4352 210.435 85.9373 210.435 85.9373 188.355 90.2305 180.587 91.2528 172.818 92.2752 168.32 90.4352 169.751 79.8042 171.182 69.1732 180.79 65.2895 192.853 62.6318 204.915 59.974 216.363 59.5658 228.63 65.2895 240.896 71.0133 286.281 110.879 286.281 181.649 286.148 248.513 230.357 303.46 162.597 303.46 94.8365 303.46 38.9121 248.365 38.9121 181.41 38.9121 181.41 37.2767 143.998 72.4404 105.359 107.604 66.7202 152.478 45.1523 156.055 44.9476 157.84 44.7487 152.46 50.6572 144.031 59.1281 135.08 68.1237 122.692 80.0077 111.794 90.5375 90.634 110.982 66.919 131.937 66.919 178.753 66.919 232.249 110.939 276.269 164.436 276.269 217.932 276.269 261.952 232.249 261.952 178.753 261.952 178.753 263.929 161.444 252.617 134.73 241.304 108.017 226.993 105.904 222.7 106.449Z" fill="#337AB2" fill-rule="nonzero" fill-opacity="1" transform="matrix(1 0 0 1.0037 70.5994 110.941)"/><path d="M212.265 70.0224C212.265 73.0027 210.995 75.4187 209.428 75.4187 207.861 75.4187 206.591 73.0027 206.591 70.0224 206.591 67.0421 207.861 64.6261 209.428 64.6261 210.995 64.6261 212.265 67.0421 212.265 70.0224Z" fill="#243A59" fill-rule="nonzero" fill-opacity="1" transform="matrix(0.979745 -0.200247 0.19951 0.983368 60.839 154.305)"/><path d="M209.091 67.9724C209.091 68.7047 208.678 69.2984 208.169 69.2984 207.66 69.2984 207.248 68.7047 207.248 67.9724 207.248 67.24 207.66 66.6464 208.169 66.6464 208.678 66.6464 209.091 67.24 209.091 67.9724Z" fill="#FFD746" fill-rule="nonzero" fill-opacity="1" transform="matrix(0.992123 -0.125268 0.124807 0.995791 63.7415 137.565)"/><path d="M55.5739 178.849C55.6833 238.158 104.515 286.9 163.824 286.9 223.133 286.9 272.074 238.035 272.074 178.65 272.074 160.455 267.576 142.771 264.408 135.923 261.239 129.074 254.39 115.275 244.577 106.995 235.991 100.385 224.713 103.009 222.702 106.45 226.996 105.905 241.307 108.017 252.619 134.731 263.931 161.444 261.955 178.754 261.955 178.754 261.955 232.25 217.934 276.27 164.438 276.27 110.942 276.27 66.9213 232.25 66.9213 178.754 66.9213 131.938 90.6364 110.983 111.796 90.5387 122.694 80.0101 135.083 68.1249 144.034 59.1293 134.693 60.9976 105.05 85.8362 97.8943 92.3788 90.7387 98.9214 73.4639 120.694 68.6591 128.666 63.8553 136.639 55.575 153.495 55.575 178.85Z" fill="#F6D042" fill-rule="nonzero" fill-opacity="1" transform="matrix(1 0 0 1.0037 70.5994 110.941)"/></g></g></g></g></svg>