<svg width="5757" height="1851" xmlns="http://www.w3.org/2000/svg" xmlns:xlink="http://www.w3.org/1999/xlink" xml:space="preserve" overflow="hidden"><g transform="translate(-641 -426)"><g><path d="M1137.5 769.917 1270.49 769.917 1270.49 779.084 1137.5 779.083ZM1265.91 760.75 1293.41 774.5 1265.91 788.25Z" fill="#000000" fill-rule="nonzero" fill-opacity="1"/><rect x="1308.5" y="692.5" width="663" height="164" stroke="#172C51" stroke-width="4.58333" stroke-linecap="butt" stroke-linejoin="miter" stroke-miterlimit="8" stroke-opacity="1" fill="none"/><text fill="#000000" fill-opacity="1" font-family="Cambria Math,Cambria Math_MSFontService,sans-serif" font-style="normal" font-variant="normal" font-weight="400" font-stretch="normal" font-size="83" text-anchor="start" direction="ltr" writing-mode="lr-tb" unicode-bidi="normal" text-decoration="none" transform="matrix(1 0 0 1 1402.58 804)">ğ‘¥</text><text fill="#000000" fill-opacity="1" font-family="Cambria Math,Cambria Math_MSFontService,sans-serif" font-style="normal" font-variant="normal" font-weight="400" font-stretch="normal" font-size="61" text-anchor="start" direction="ltr" writing-mode="lr-tb" unicode-bidi="normal" text-decoration="none" transform="matrix(1 0 0 1 1443.99 821)">1</text><text fill="#000000" fill-opacity="1" font-family="Cambria Math,Cambria Math_MSFontService,sans-serif" font-style="normal" font-variant="normal" font-weight="400" font-stretch="normal" font-size="83" text-anchor="start" direction="ltr" writing-mode="lr-tb" unicode-bidi="normal" text-decoration="none" transform="matrix(1 0 0 1 1505.26 804)">=</text><text fill="#000000" fill-opacity="1" font-family="Cambria Math,Cambria Math_MSFontService,sans-serif" font-style="normal" font-variant="normal" font-weight="400" font-stretch="normal" font-size="83" text-anchor="start" direction="ltr" writing-mode="lr-tb" unicode-bidi="normal" text-decoration="none" transform="matrix(1 0 0 1 1590.06 804)">cos</text><text fill="#000000" fill-opacity="1" font-family="Cambria Math,Cambria Math_MSFontService,sans-serif" font-style="normal" font-variant="normal" font-weight="400" font-stretch="normal" font-size="83" text-anchor="start" direction="ltr" writing-mode="lr-tb" unicode-bidi="normal" text-decoration="none" transform="matrix(1 0 0 1 1705.21 804)">â¡</text><text fill="#000000" fill-opacity="1" font-family="Cambria Math,Cambria Math_MSFontService,sans-serif" font-style="normal" font-variant="normal" font-weight="400" font-stretch="normal" font-size="83" text-anchor="start" direction="ltr" writing-mode="lr-tb" unicode-bidi="normal" text-decoration="none" transform="matrix(1 0 0 1 1705.21 804)">(</text><text fill="#000000" fill-opacity="1" font-family="Cambria Math,Cambria Math_MSFontService,sans-serif" font-style="normal" font-variant="normal" font-weight="400" font-stretch="normal" font-size="83" text-anchor="start" direction="ltr" writing-mode="lr-tb" unicode-bidi="normal" text-decoration="none" transform="matrix(1 0 0 1 1739.59 804)">ğ‘¥</text><text fill="#000000" fill-opacity="1" font-family="Cambria Math,Cambria Math_MSFontService,sans-serif" font-style="normal" font-variant="normal" font-weight="400" font-stretch="normal" font-size="61" text-anchor="start" direction="ltr" writing-mode="lr-tb" unicode-bidi="normal" text-decoration="none" transform="matrix(1 0 0 1 1782.9 821)">0</text><text fill="#000000" fill-opacity="1" font-family="Cambria Math,Cambria Math_MSFontService,sans-serif" font-style="normal" font-variant="normal" font-weight="400" font-stretch="normal" font-size="83" text-anchor="start" direction="ltr" writing-mode="lr-tb" unicode-bidi="normal" text-decoration="none" transform="matrix(1 0 0 1 1821.26 804)">)</text><path d="M1990.5 769.917 2123.49 769.917 2123.49 779.084 1990.5 779.083ZM2118.91 760.75 2146.41 774.5 2118.91 788.25Z" fill="#000000" fill-rule="nonzero" fill-opacity="1"/><path d="M846.5 782C846.5 706.613 907.613 645.5 983 645.5 1058.39 645.5 1119.5 706.613 1119.5 782 1119.5 857.387 1058.39 918.5 983 918.5 907.613 918.5 846.5 857.387 846.5 782Z" stroke="#000000" stroke-width="6.875" stroke-linecap="butt" stroke-linejoin="miter" stroke-miterlimit="8" stroke-opacity="1" fill="none" fill-rule="evenodd"/><text fill="#000000" fill-opacity="1" font-family="Times New Roman,Times New Roman_MSFontService,sans-serif" font-style="normal" font-variant="normal" font-weight="700" font-stretch="normal" font-size="83" text-anchor="start" direction="ltr" writing-mode="lr-tb" unicode-bidi="normal" text-decoration="none" transform="matrix(1 0 0 1 947.803 812)">x</text><text fill="#000000" fill-opacity="1" font-family="Times New Roman,Times New Roman_MSFontService,sans-serif" font-style="normal" font-variant="normal" font-weight="700" font-stretch="normal" font-size="55" text-anchor="start" direction="ltr" writing-mode="lr-tb" unicode-bidi="normal" text-decoration="none" transform="matrix(1 0 0 1 989.053 832)">0</text><path d="M670.5 769.917 803.489 769.917 803.489 779.084 670.5 779.083ZM798.906 760.75 826.406 774.5 798.906 788.25Z" fill="#000000" fill-rule="nonzero" fill-opacity="1"/><path d="M870.081 1101.9 863.126 1092.79 858.518 1085.5 854.639 1078.63 860.626 1075.25 864.464 1082.05 864.376 1081.9 868.856 1088.99 868.682 1088.74 875.545 1097.72ZM845.907 1059.31 841.558 1047.08 837.962 1032.67 844.633 1031.01 848.188 1045.25 848.092 1044.93 852.385 1057.01ZM834.928 1011.63 834.21 998.051 834.817 983.829 841.686 984.122 841.086 998.18 841.085 997.852 841.793 1011.26ZM837.759 962.77 841.059 948.95 845.492 936.066 851.993 938.303 847.614 951.03 847.707 950.709 844.446 964.367ZM854.128 916.711 857.627 910.36 862.126 903.08 867.02 895.981 869.201 893.135 874.658 897.317 872.529 900.095 872.631 899.955 867.835 906.911 867.929 906.767 863.521 913.901 863.607 913.753 860.149 920.029ZM882.849 877.231 884.009 875.999 889.016 880.71 887.856 881.943ZM880.269 1087.38 887.728 1117.21 859.391 1105.28Z" fill="#FF0000" fill-rule="nonzero" fill-opacity="1"/><path d="M2173.73 1099.24 2166.78 1090.13 2162.17 1082.84 2158.29 1075.97 2164.28 1072.59 2168.12 1079.39 2168.03 1079.24 2172.51 1086.33 2172.34 1086.08 2179.2 1095.07ZM2149.56 1056.66 2145.21 1044.42 2141.62 1030.02 2148.29 1028.35 2151.84 1042.6 2151.74 1042.28 2156.04 1054.35ZM2138.58 1008.97 2137.86 995.395 2138.47 981.173 2145.34 981.466 2144.74 995.524 2144.74 995.196 2145.45 1008.61ZM2141.41 960.115 2144.71 946.295 2149.15 933.411 2155.65 935.648 2151.27 948.374 2151.36 948.054 2148.1 961.711ZM2157.78 914.055 2161.28 907.704 2165.78 900.424 2170.67 893.326 2172.85 890.48 2178.31 894.662 2176.18 897.439 2176.28 897.299 2171.49 904.255 2171.58 904.111 2167.17 911.245 2167.26 911.097 2163.8 917.373ZM2186.5 874.576 2187.66 873.343 2192.67 878.055 2191.51 879.287ZM2183.92 1084.73 2191.38 1114.55 2163.04 1102.62Z" fill="#FF0000" fill-rule="nonzero" fill-opacity="1"/><path d="M2157.5 1688C2157.5 1612.61 2218.61 1551.5 2294 1551.5 2369.39 1551.5 2430.5 1612.61 2430.5 1688 2430.5 1763.39 2369.39 1824.5 2294 1824.5 2218.61 1824.5 2157.5 1763.39 2157.5 1688Z" stroke="#FF0000" stroke-width="6.875" stroke-linecap="butt" stroke-linejoin="miter" stroke-miterlimit="8" stroke-opacity="1" fill="#FFFFFF" fill-rule="evenodd" fill-opacity="1"/><text fill="#FF0000" fill-opacity="1" font-family="Cambria Math,Cambria Math_MSFontService,sans-serif" font-style="normal" font-variant="normal" font-weight="400" font-stretch="normal" font-size="83" text-anchor="start" direction="ltr" writing-mode="lr-tb" unicode-bidi="normal" text-decoration="none" transform="matrix(1 0 0 1 2234.86 1718)">âˆ‡</text><text fill="#FF0000" fill-opacity="1" font-family="Times New Roman,Times New Roman_MSFontService,sans-serif" font-style="normal" font-variant="normal" font-weight="700" font-stretch="normal" font-size="83" text-anchor="start" direction="ltr" writing-mode="lr-tb" unicode-bidi="normal" text-decoration="none" transform="matrix(1 0 0 1 2284.13 1718)">x</text><text fill="#FF0000" fill-opacity="1" font-family="Times New Roman,Times New Roman_MSFontService,sans-serif" font-style="normal" font-variant="normal" font-weight="700" font-stretch="normal" font-size="55" text-anchor="start" direction="ltr" writing-mode="lr-tb" unicode-bidi="normal" text-decoration="none" transform="matrix(1 0 0 1 2325.38 1738)">1</text><path d="M2160.5 779.5C2160.5 704.389 2221.61 643.5 2297 643.5 2372.39 643.5 2433.5 704.389 2433.5 779.5 2433.5 854.611 2372.39 915.5 2297 915.5 2221.61 915.5 2160.5 854.611 2160.5 779.5Z" stroke="#000000" stroke-width="6.875" stroke-linecap="butt" stroke-linejoin="miter" stroke-miterlimit="8" stroke-opacity="1" fill="none" fill-rule="evenodd"/><text fill="#000000" fill-opacity="1" font-family="Times New Roman,Times New Roman_MSFontService,sans-serif" font-style="normal" font-variant="normal" font-weight="700" font-stretch="normal" font-size="83" text-anchor="start" direction="ltr" writing-mode="lr-tb" unicode-bidi="normal" text-decoration="none" transform="matrix(1 0 0 1 2262.1 809)">x</text><text fill="#000000" fill-opacity="1" font-family="Times New Roman,Times New Roman_MSFontService,sans-serif" font-style="normal" font-variant="normal" font-weight="700" font-stretch="normal" font-size="55" text-anchor="start" direction="ltr" writing-mode="lr-tb" unicode-bidi="normal" text-decoration="none" transform="matrix(1 0 0 1 2303.35 829)">1</text><path d="M3479.5 774C3479.5 698.613 3540.61 637.5 3616 637.5 3691.39 637.5 3752.5 698.613 3752.5 774 3752.5 849.387 3691.39 910.5 3616 910.5 3540.61 910.5 3479.5 849.387 3479.5 774Z" stroke="#000000" stroke-width="6.875" stroke-linecap="butt" stroke-linejoin="miter" stroke-miterlimit="8" stroke-opacity="1" fill="none" fill-rule="evenodd"/><text fill="#000000" fill-opacity="1" font-family="Times New Roman,Times New Roman_MSFontService,sans-serif" font-style="normal" font-variant="normal" font-weight="700" font-stretch="normal" font-size="83" text-anchor="start" direction="ltr" writing-mode="lr-tb" unicode-bidi="normal" text-decoration="none" transform="matrix(1 0 0 1 3581.13 804)">x</text><text fill="#000000" fill-opacity="1" font-family="Times New Roman,Times New Roman_MSFontService,sans-serif" font-style="normal" font-variant="normal" font-weight="700" font-stretch="normal" font-size="55" text-anchor="start" direction="ltr" writing-mode="lr-tb" unicode-bidi="normal" text-decoration="none" transform="matrix(1 0 0 1 3622.38 824)">2</text><path d="M3498.5 774.5C3498.5 709.883 3550.88 657.5 3615.5 657.5 3680.12 657.5 3732.5 709.883 3732.5 774.5 3732.5 839.117 3680.12 891.5 3615.5 891.5 3550.88 891.5 3498.5 839.117 3498.5 774.5Z" stroke="#000000" stroke-width="4.58333" stroke-linecap="butt" stroke-linejoin="miter" stroke-miterlimit="8" stroke-opacity="1" fill="none" fill-rule="evenodd"/><path d="M2454.5 769.917 2587.49 769.917 2587.49 779.084 2454.5 779.083ZM2582.91 760.75 2610.41 774.5 2582.91 788.25Z" fill="#000000" fill-rule="nonzero" fill-opacity="1"/><rect x="2625.5" y="692.5" width="663" height="164" stroke="#172C51" stroke-width="4.58333" stroke-linecap="butt" stroke-linejoin="miter" stroke-miterlimit="8" stroke-opacity="1" fill="none"/><text fill="#000000" fill-opacity="1" font-family="Cambria Math,Cambria Math_MSFontService,sans-serif" font-style="normal" font-variant="normal" font-weight="400" font-stretch="normal" font-size="83" text-anchor="start" direction="ltr" writing-mode="lr-tb" unicode-bidi="normal" text-decoration="none" transform="matrix(1 0 0 1 2719.54 804)">ğ‘¥</text><text fill="#000000" fill-opacity="1" font-family="Cambria Math,Cambria Math_MSFontService,sans-serif" font-style="normal" font-variant="normal" font-weight="400" font-stretch="normal" font-size="61" text-anchor="start" direction="ltr" writing-mode="lr-tb" unicode-bidi="normal" text-decoration="none" transform="matrix(1 0 0 1 2762.85 821)">2</text><text fill="#000000" fill-opacity="1" font-family="Cambria Math,Cambria Math_MSFontService,sans-serif" font-style="normal" font-variant="normal" font-weight="400" font-stretch="normal" font-size="83" text-anchor="start" direction="ltr" writing-mode="lr-tb" unicode-bidi="normal" text-decoration="none" transform="matrix(1 0 0 1 2824.13 804)">=</text><text fill="#000000" fill-opacity="1" font-family="Cambria Math,Cambria Math_MSFontService,sans-serif" font-style="normal" font-variant="normal" font-weight="400" font-stretch="normal" font-size="83" text-anchor="start" direction="ltr" writing-mode="lr-tb" unicode-bidi="normal" text-decoration="none" transform="matrix(1 0 0 1 2908.93 804)">cos</text><text fill="#000000" fill-opacity="1" font-family="Cambria Math,Cambria Math_MSFontService,sans-serif" font-style="normal" font-variant="normal" font-weight="400" font-stretch="normal" font-size="83" text-anchor="start" direction="ltr" writing-mode="lr-tb" unicode-bidi="normal" text-decoration="none" transform="matrix(1 0 0 1 3024.08 804)">â¡</text><text fill="#000000" fill-opacity="1" font-family="Cambria Math,Cambria Math_MSFontService,sans-serif" font-style="normal" font-variant="normal" font-weight="400" font-stretch="normal" font-size="83" text-anchor="start" direction="ltr" writing-mode="lr-tb" unicode-bidi="normal" text-decoration="none" transform="matrix(1 0 0 1 3024.08 804)">(</text><text fill="#000000" fill-opacity="1" font-family="Cambria Math,Cambria Math_MSFontService,sans-serif" font-style="normal" font-variant="normal" font-weight="400" font-stretch="normal" font-size="83" text-anchor="start" direction="ltr" writing-mode="lr-tb" unicode-bidi="normal" text-decoration="none" transform="matrix(1 0 0 1 3058.46 804)">ğ‘¥</text><text fill="#000000" fill-opacity="1" font-family="Cambria Math,Cambria Math_MSFontService,sans-serif" font-style="normal" font-variant="normal" font-weight="400" font-stretch="normal" font-size="61" text-anchor="start" direction="ltr" writing-mode="lr-tb" unicode-bidi="normal" text-decoration="none" transform="matrix(1 0 0 1 3099.87 821)">1</text><text fill="#000000" fill-opacity="1" font-family="Cambria Math,Cambria Math_MSFontService,sans-serif" font-style="normal" font-variant="normal" font-weight="400" font-stretch="normal" font-size="83" text-anchor="start" direction="ltr" writing-mode="lr-tb" unicode-bidi="normal" text-decoration="none" transform="matrix(1 0 0 1 3138.23 804)">)</text><path d="M3307.5 769.917 3440.49 769.917 3440.49 779.084 3307.5 779.083ZM3435.91 760.75 3463.41 774.5 3435.91 788.25Z" fill="#000000" fill-rule="nonzero" fill-opacity="1"/><path d="M3771.5 770.917 3904.49 770.917 3904.49 780.084 3771.5 780.083ZM3899.91 761.75 3927.41 775.5 3899.91 789.25Z" fill="#000000" fill-rule="nonzero" fill-opacity="1"/><rect x="3942.5" y="693.5" width="663" height="164" stroke="#172C51" stroke-width="4.58333" stroke-linecap="butt" stroke-linejoin="miter" stroke-miterlimit="8" stroke-opacity="1" fill="none"/><text fill="#000000" fill-opacity="1" font-family="Cambria Math,Cambria Math_MSFontService,sans-serif" font-style="normal" font-variant="normal" font-weight="400" font-stretch="normal" font-size="83" text-anchor="start" direction="ltr" writing-mode="lr-tb" unicode-bidi="normal" text-decoration="none" transform="matrix(1 0 0 1 3991.15 805)">ğ‘¥</text><text fill="#000000" fill-opacity="1" font-family="Cambria Math,Cambria Math_MSFontService,sans-serif" font-style="normal" font-variant="normal" font-weight="400" font-stretch="normal" font-size="61" text-anchor="start" direction="ltr" writing-mode="lr-tb" unicode-bidi="normal" text-decoration="none" transform="matrix(1 0 0 1 4034.47 822)">3</text><text fill="#000000" fill-opacity="1" font-family="Cambria Math,Cambria Math_MSFontService,sans-serif" font-style="normal" font-variant="normal" font-weight="400" font-stretch="normal" font-size="83" text-anchor="start" direction="ltr" writing-mode="lr-tb" unicode-bidi="normal" text-decoration="none" transform="matrix(1 0 0 1 4095.74 805)">=</text><text fill="#000000" fill-opacity="1" font-family="Cambria Math,Cambria Math_MSFontService,sans-serif" font-style="normal" font-variant="normal" font-weight="400" font-stretch="normal" font-size="83" text-anchor="start" direction="ltr" writing-mode="lr-tb" unicode-bidi="normal" text-decoration="none" transform="matrix(1 0 0 1 4180.54 805)">m</text><text fill="#000000" fill-opacity="1" font-family="Cambria Math,Cambria Math_MSFontService,sans-serif" font-style="normal" font-variant="normal" font-weight="400" font-stretch="normal" font-size="83" text-anchor="start" direction="ltr" writing-mode="lr-tb" unicode-bidi="normal" text-decoration="none" transform="matrix(1 0 0 1 4249.29 805)">ğ‘’ğ‘ğ‘›</text><text fill="#000000" fill-opacity="1" font-family="Cambria Math,Cambria Math_MSFontService,sans-serif" font-style="normal" font-variant="normal" font-weight="400" font-stretch="normal" font-size="83" text-anchor="start" direction="ltr" writing-mode="lr-tb" unicode-bidi="normal" text-decoration="none" transform="matrix(1 0 0 1 4384.77 805)">â¡</text><text fill="#000000" fill-opacity="1" font-family="Cambria Math,Cambria Math_MSFontService,sans-serif" font-style="normal" font-variant="normal" font-weight="400" font-stretch="normal" font-size="83" text-anchor="start" direction="ltr" writing-mode="lr-tb" unicode-bidi="normal" text-decoration="none" transform="matrix(1 0 0 1 4384.77 805)">(</text><text fill="#000000" fill-opacity="1" font-family="Cambria Math,Cambria Math_MSFontService,sans-serif" font-style="normal" font-variant="normal" font-weight="400" font-stretch="normal" font-size="83" text-anchor="start" direction="ltr" writing-mode="lr-tb" unicode-bidi="normal" text-decoration="none" transform="matrix(1 0 0 1 4419.14 805)">ğ‘¥</text><text fill="#000000" fill-opacity="1" font-family="Cambria Math,Cambria Math_MSFontService,sans-serif" font-style="normal" font-variant="normal" font-weight="400" font-stretch="normal" font-size="61" text-anchor="start" direction="ltr" writing-mode="lr-tb" unicode-bidi="normal" text-decoration="none" transform="matrix(1 0 0 1 4462.46 822)">2</text><text fill="#000000" fill-opacity="1" font-family="Cambria Math,Cambria Math_MSFontService,sans-serif" font-style="normal" font-variant="normal" font-weight="400" font-stretch="normal" font-size="83" text-anchor="start" direction="ltr" writing-mode="lr-tb" unicode-bidi="normal" text-decoration="none" transform="matrix(1 0 0 1 4500.82 805)">)</text><path d="M4624.5 770.917 4757.49 770.917 4757.49 780.084 4624.5 780.083ZM4752.91 761.75 4780.41 775.5 4752.91 789.25Z" fill="#000000" fill-rule="nonzero" fill-opacity="1"/><path d="M4798.5 774C4798.5 698.613 4859.61 637.5 4935 637.5 5010.39 637.5 5071.5 698.613 5071.5 774 5071.5 849.387 5010.39 910.5 4935 910.5 4859.61 910.5 4798.5 849.387 4798.5 774Z" stroke="#000000" stroke-width="6.875" stroke-linecap="butt" stroke-linejoin="miter" stroke-miterlimit="8" stroke-opacity="1" fill="none" fill-rule="evenodd"/><text fill="#000000" fill-opacity="1" font-family="Times New Roman,Times New Roman_MSFontService,sans-serif" font-style="normal" font-variant="normal" font-weight="700" font-stretch="normal" font-size="83" text-anchor="start" direction="ltr" writing-mode="lr-tb" unicode-bidi="normal" text-decoration="none" transform="matrix(1 0 0 1 4900.16 804)">x</text><text fill="#000000" fill-opacity="1" font-family="Times New Roman,Times New Roman_MSFontService,sans-serif" font-style="normal" font-variant="normal" font-weight="700" font-stretch="normal" font-size="55" text-anchor="start" direction="ltr" writing-mode="lr-tb" unicode-bidi="normal" text-decoration="none" transform="matrix(1 0 0 1 4941.41 824)">3</text><path d="M5095.5 769.917 5228.49 769.917 5228.49 779.084 5095.5 779.083ZM5223.91 760.75 5251.41 774.5 5223.91 788.25Z" fill="#000000" fill-rule="nonzero" fill-opacity="1"/><rect x="5266.5" y="692.5" width="663" height="164" stroke="#172C51" stroke-width="4.58333" stroke-linecap="butt" stroke-linejoin="miter" stroke-miterlimit="8" stroke-opacity="1" fill="none"/><text fill="#000000" fill-opacity="1" font-family="Cambria Math,Cambria Math_MSFontService,sans-serif" font-style="normal" font-variant="normal" font-weight="400" font-stretch="normal" font-size="83" text-anchor="start" direction="ltr" writing-mode="lr-tb" unicode-bidi="normal" text-decoration="none" transform="matrix(1 0 0 1 5374.64 804)">ğ‘¥</text><text fill="#000000" fill-opacity="1" font-family="Cambria Math,Cambria Math_MSFontService,sans-serif" font-style="normal" font-variant="normal" font-weight="400" font-stretch="normal" font-size="61" text-anchor="start" direction="ltr" writing-mode="lr-tb" unicode-bidi="normal" text-decoration="none" transform="matrix(1 0 0 1 5417.96 821)">4</text><text fill="#000000" fill-opacity="1" font-family="Cambria Math,Cambria Math_MSFontService,sans-serif" font-style="normal" font-variant="normal" font-weight="400" font-stretch="normal" font-size="83" text-anchor="start" direction="ltr" writing-mode="lr-tb" unicode-bidi="normal" text-decoration="none" transform="matrix(1 0 0 1 5479.23 804)">=</text><text fill="#000000" fill-opacity="1" font-family="Cambria Math,Cambria Math_MSFontService,sans-serif" font-style="normal" font-variant="normal" font-weight="400" font-stretch="normal" font-size="83" text-anchor="start" direction="ltr" writing-mode="lr-tb" unicode-bidi="normal" text-decoration="none" transform="matrix(1 0 0 1 5564.03 804)">ğ‘¥</text><text fill="#000000" fill-opacity="1" font-family="Cambria Math,Cambria Math_MSFontService,sans-serif" font-style="normal" font-variant="normal" font-weight="400" font-stretch="normal" font-size="61" text-anchor="start" direction="ltr" writing-mode="lr-tb" unicode-bidi="normal" text-decoration="none" transform="matrix(1 0 0 1 5607.34 821)">3</text><text fill="#000000" fill-opacity="1" font-family="Cambria Math,Cambria Math_MSFontService,sans-serif" font-style="normal" font-variant="normal" font-weight="400" font-stretch="normal" font-size="83" text-anchor="start" direction="ltr" writing-mode="lr-tb" unicode-bidi="normal" text-decoration="none" transform="matrix(1 0 0 1 5668.62 804)">&gt;</text><text fill="#000000" fill-opacity="1" font-family="Cambria Math,Cambria Math_MSFontService,sans-serif" font-style="normal" font-variant="normal" font-weight="400" font-stretch="normal" font-size="83" text-anchor="start" direction="ltr" writing-mode="lr-tb" unicode-bidi="normal" text-decoration="none" transform="matrix(1 0 0 1 5753.41 804)">0</text><path d="M5948.5 769.917 6081.49 769.917 6081.49 779.084 5948.5 779.083ZM6076.91 760.75 6104.41 774.5 6076.91 788.25Z" fill="#000000" fill-rule="nonzero" fill-opacity="1"/><path d="M6121.5 774C6121.5 698.613 6182.61 637.5 6258 637.5 6333.39 637.5 6394.5 698.613 6394.5 774 6394.5 849.387 6333.39 910.5 6258 910.5 6182.61 910.5 6121.5 849.387 6121.5 774Z" stroke="#000000" stroke-width="6.875" stroke-linecap="butt" stroke-linejoin="miter" stroke-miterlimit="8" stroke-opacity="1" fill="none" fill-rule="evenodd"/><text fill="#000000" fill-opacity="1" font-family="Times New Roman,Times New Roman_MSFontService,sans-serif" font-style="normal" font-variant="normal" font-weight="700" font-stretch="normal" font-size="83" text-anchor="start" direction="ltr" writing-mode="lr-tb" unicode-bidi="normal" text-decoration="none" transform="matrix(1 0 0 1 6222.89 804)">x</text><text fill="#000000" fill-opacity="1" font-family="Times New Roman,Times New Roman_MSFontService,sans-serif" font-style="normal" font-variant="normal" font-weight="700" font-stretch="normal" font-size="55" text-anchor="start" direction="ltr" writing-mode="lr-tb" unicode-bidi="normal" text-decoration="none" transform="matrix(1 0 0 1 6264.14 824)">4</text><path d="M6140.5 774.5C6140.5 709.883 6192.88 657.5 6257.5 657.5 6322.12 657.5 6374.5 709.883 6374.5 774.5 6374.5 839.117 6322.12 891.5 6257.5 891.5 6192.88 891.5 6140.5 839.117 6140.5 774.5Z" stroke="#000000" stroke-width="4.58333" stroke-linecap="butt" stroke-linejoin="miter" stroke-miterlimit="8" stroke-opacity="1" fill="none" fill-rule="evenodd"/><path d="M3479.5 1234C3479.5 1158.61 3540.61 1097.5 3616 1097.5 3691.39 1097.5 3752.5 1158.61 3752.5 1234 3752.5 1309.39 3691.39 1370.5 3616 1370.5 3540.61 1370.5 3479.5 1309.39 3479.5 1234Z" stroke="#FF0000" stroke-width="6.875" stroke-linecap="butt" stroke-linejoin="miter" stroke-miterlimit="8" stroke-opacity="1" fill="#FFFFFF" fill-rule="evenodd" fill-opacity="1"/><text fill="#FF0000" fill-opacity="1" font-family="Cambria Math,Cambria Math_MSFontService,sans-serif" font-style="normal" font-variant="normal" font-weight="400" font-stretch="normal" font-size="83" text-anchor="start" direction="ltr" writing-mode="lr-tb" unicode-bidi="normal" text-decoration="none" transform="matrix(1 0 0 1 3556.49 1264)">âˆ‡</text><text fill="#FF0000" fill-opacity="1" font-family="Times New Roman,Times New Roman_MSFontService,sans-serif" font-style="normal" font-variant="normal" font-weight="700" font-stretch="normal" font-size="83" text-anchor="start" direction="ltr" writing-mode="lr-tb" unicode-bidi="normal" text-decoration="none" transform="matrix(1 0 0 1 3605.76 1264)">x</text><text fill="#FF0000" fill-opacity="1" font-family="Times New Roman,Times New Roman_MSFontService,sans-serif" font-style="normal" font-variant="normal" font-weight="700" font-stretch="normal" font-size="55" text-anchor="start" direction="ltr" writing-mode="lr-tb" unicode-bidi="normal" text-decoration="none" transform="matrix(1 0 0 1 3647.01 1284)">2</text><path d="M846.5 1237C846.5 1161.61 907.613 1100.5 983 1100.5 1058.39 1100.5 1119.5 1161.61 1119.5 1237 1119.5 1312.39 1058.39 1373.5 983 1373.5 907.613 1373.5 846.5 1312.39 846.5 1237Z" stroke="#FF0000" stroke-width="6.875" stroke-linecap="butt" stroke-linejoin="miter" stroke-miterlimit="8" stroke-opacity="1" fill="#FFFFFF" fill-rule="evenodd" fill-opacity="1"/><text fill="#FF0000" fill-opacity="1" font-family="Times New Roman,Times New Roman_MSFontService,sans-serif" font-style="normal" font-variant="normal" font-weight="700" font-stretch="normal" font-size="83" text-anchor="start" direction="ltr" writing-mode="lr-tb" unicode-bidi="normal" text-decoration="none" transform="matrix(1 0 0 1 947.803 1267)">x</text><text fill="#FF0000" fill-opacity="1" font-family="Times New Roman,Times New Roman_MSFontService,sans-serif" font-style="normal" font-variant="normal" font-weight="700" font-stretch="normal" font-size="55" text-anchor="start" direction="ltr" writing-mode="lr-tb" unicode-bidi="normal" text-decoration="none" transform="matrix(1 0 0 1 989.053 1287)">0</text><path d="M2160.5 1234C2160.5 1158.61 2221.61 1097.5 2297 1097.5 2372.39 1097.5 2433.5 1158.61 2433.5 1234 2433.5 1309.39 2372.39 1370.5 2297 1370.5 2221.61 1370.5 2160.5 1309.39 2160.5 1234Z" stroke="#FF0000" stroke-width="6.875" stroke-linecap="butt" stroke-linejoin="miter" stroke-miterlimit="8" stroke-opacity="1" fill="#FFFFFF" fill-rule="evenodd" fill-opacity="1"/><text fill="#FF0000" fill-opacity="1" font-family="Times New Roman,Times New Roman_MSFontService,sans-serif" font-style="normal" font-variant="normal" font-weight="700" font-stretch="normal" font-size="83" text-anchor="start" direction="ltr" writing-mode="lr-tb" unicode-bidi="normal" text-decoration="none" transform="matrix(1 0 0 1 2262.1 1264)">x</text><text fill="#FF0000" fill-opacity="1" font-family="Times New Roman,Times New Roman_MSFontService,sans-serif" font-style="normal" font-variant="normal" font-weight="700" font-stretch="normal" font-size="55" text-anchor="start" direction="ltr" writing-mode="lr-tb" unicode-bidi="normal" text-decoration="none" transform="matrix(1 0 0 1 2303.35 1284)">1</text><path d="M2957.67 1326.5 2957.67 1694.86 2465.42 1694.86 2465.42 1685.7 2953.09 1685.7 2948.51 1690.28 2948.51 1326.5ZM2470 1704.03 2442.5 1690.28 2470 1676.53Z" fill="#FF0000" fill-rule="nonzero" fill-opacity="1"/><path d="M2445.51 1228.92 2552.52 1229.18 2552.49 1238.35 2445.49 1238.08ZM2547.96 1220.01 2575.42 1233.83 2547.89 1247.51Z" fill="#FF0000" fill-rule="nonzero" fill-opacity="1"/><rect x="2581.5" y="1152.5" width="751" height="164" stroke="#FF0000" stroke-width="4.58333" stroke-linecap="butt" stroke-linejoin="miter" stroke-miterlimit="8" stroke-opacity="1" fill="none"/><text fill="#FF0000" fill-opacity="1" font-family="Cambria Math,Cambria Math_MSFontService,sans-serif" font-style="normal" font-variant="normal" font-weight="400" font-stretch="normal" font-size="83" text-anchor="start" direction="ltr" writing-mode="lr-tb" unicode-bidi="normal" text-decoration="none" transform="matrix(1 0 0 1 2604.94 1264)">âˆ‡</text><text fill="#FF0000" fill-opacity="1" font-family="Cambria Math,Cambria Math_MSFontService,sans-serif" font-style="normal" font-variant="normal" font-weight="400" font-stretch="normal" font-size="83" text-anchor="start" direction="ltr" writing-mode="lr-tb" unicode-bidi="normal" text-decoration="none" transform="matrix(1 0 0 1 2654.21 1264)">ğ‘¥</text><text fill="#FF0000" fill-opacity="1" font-family="Cambria Math,Cambria Math_MSFontService,sans-serif" font-style="normal" font-variant="normal" font-weight="400" font-stretch="normal" font-size="61" text-anchor="start" direction="ltr" writing-mode="lr-tb" unicode-bidi="normal" text-decoration="none" transform="matrix(1 0 0 1 2695.62 1281)">1</text><text fill="#FF0000" fill-opacity="1" font-family="Cambria Math,Cambria Math_MSFontService,sans-serif" font-style="normal" font-variant="normal" font-weight="400" font-stretch="normal" font-size="83" text-anchor="start" direction="ltr" writing-mode="lr-tb" unicode-bidi="normal" text-decoration="none" transform="matrix(1 0 0 1 2756.9 1264)">=</text><text fill="#FF0000" fill-opacity="1" font-family="Cambria Math,Cambria Math_MSFontService,sans-serif" font-style="normal" font-variant="normal" font-weight="400" font-stretch="normal" font-size="83" text-anchor="start" direction="ltr" writing-mode="lr-tb" unicode-bidi="normal" text-decoration="none" transform="matrix(1 0 0 1 2841.69 1264)">âˆ’</text><text fill="#FF0000" fill-opacity="1" font-family="Cambria Math,Cambria Math_MSFontService,sans-serif" font-style="normal" font-variant="normal" font-weight="400" font-stretch="normal" font-size="83" text-anchor="start" direction="ltr" writing-mode="lr-tb" unicode-bidi="normal" text-decoration="none" transform="matrix(1 0 0 1 2903.57 1264)">sin</text><text fill="#FF0000" fill-opacity="1" font-family="Cambria Math,Cambria Math_MSFontService,sans-serif" font-style="normal" font-variant="normal" font-weight="400" font-stretch="normal" font-size="83" text-anchor="start" direction="ltr" writing-mode="lr-tb" unicode-bidi="normal" text-decoration="none" transform="matrix(1 0 0 1 3007.84 1264)">â¡</text><text fill="#FF0000" fill-opacity="1" font-family="Cambria Math,Cambria Math_MSFontService,sans-serif" font-style="normal" font-variant="normal" font-weight="400" font-stretch="normal" font-size="83" text-anchor="start" direction="ltr" writing-mode="lr-tb" unicode-bidi="normal" text-decoration="none" transform="matrix(1 0 0 1 3007.84 1264)">(</text><text fill="#FF0000" fill-opacity="1" font-family="Cambria Math,Cambria Math_MSFontService,sans-serif" font-style="normal" font-variant="normal" font-weight="400" font-stretch="normal" font-size="83" text-anchor="start" direction="ltr" writing-mode="lr-tb" unicode-bidi="normal" text-decoration="none" transform="matrix(1 0 0 1 3042.21 1264)">ğ‘¥</text><text fill="#FF0000" fill-opacity="1" font-family="Cambria Math,Cambria Math_MSFontService,sans-serif" font-style="normal" font-variant="normal" font-weight="400" font-stretch="normal" font-size="61" text-anchor="start" direction="ltr" writing-mode="lr-tb" unicode-bidi="normal" text-decoration="none" transform="matrix(1 0 0 1 3083.62 1281)">1</text><text fill="#FF0000" fill-opacity="1" font-family="Cambria Math,Cambria Math_MSFontService,sans-serif" font-style="normal" font-variant="normal" font-weight="400" font-stretch="normal" font-size="83" text-anchor="start" direction="ltr" writing-mode="lr-tb" unicode-bidi="normal" text-decoration="none" transform="matrix(1 0 0 1 3121.99 1264)">)</text><text fill="#FF0000" fill-opacity="1" font-family="Cambria Math,Cambria Math_MSFontService,sans-serif" font-style="normal" font-variant="normal" font-weight="400" font-stretch="normal" font-size="83" text-anchor="start" direction="ltr" writing-mode="lr-tb" unicode-bidi="normal" text-decoration="none" transform="matrix(1 0 0 1 3156.36 1264)">âˆ‡</text><text fill="#FF0000" fill-opacity="1" font-family="Cambria Math,Cambria Math_MSFontService,sans-serif" font-style="normal" font-variant="normal" font-weight="400" font-stretch="normal" font-size="83" text-anchor="start" direction="ltr" writing-mode="lr-tb" unicode-bidi="normal" text-decoration="none" transform="matrix(1 0 0 1 3205.63 1264)">ğ‘¥</text><text fill="#FF0000" fill-opacity="1" font-family="Cambria Math,Cambria Math_MSFontService,sans-serif" font-style="normal" font-variant="normal" font-weight="400" font-stretch="normal" font-size="61" text-anchor="start" direction="ltr" writing-mode="lr-tb" unicode-bidi="normal" text-decoration="none" transform="matrix(1 0 0 1 3248.94 1281)">2</text><path d="M3362.42 1229.92 3469.42 1229.92 3469.42 1239.08 3362.42 1239.08ZM3367 1248.25 3339.5 1234.5 3367 1220.75Z" fill="#FF0000" fill-rule="nonzero" fill-opacity="1"/><path d="M1634.18 1783.5 1634.18 2151.86 1148.42 2151.86 1148.42 2142.7 1629.59 2142.7 1625.01 2147.28 1625.01 1783.5ZM1153 2161.03 1125.5 2147.28 1153 2133.53Z" fill="#FF0000" fill-rule="nonzero" fill-opacity="1"/><rect x="1250.5" y="1608.5" width="758" height="164" stroke="#FF0000" stroke-width="4.58333" stroke-linecap="butt" stroke-linejoin="miter" stroke-miterlimit="8" stroke-opacity="1" fill="none"/><text fill="#FF0000" fill-opacity="1" font-family="Cambria Math,Cambria Math_MSFontService,sans-serif" font-style="normal" font-variant="normal" font-weight="400" font-stretch="normal" font-size="83" text-anchor="start" direction="ltr" writing-mode="lr-tb" unicode-bidi="normal" text-decoration="none" transform="matrix(1 0 0 1 1276.91 1721)">âˆ‡</text><text fill="#FF0000" fill-opacity="1" font-family="Cambria Math,Cambria Math_MSFontService,sans-serif" font-style="normal" font-variant="normal" font-weight="400" font-stretch="normal" font-size="83" text-anchor="start" direction="ltr" writing-mode="lr-tb" unicode-bidi="normal" text-decoration="none" transform="matrix(1 0 0 1 1326.18 1721)">ğ‘¥</text><text fill="#FF0000" fill-opacity="1" font-family="Cambria Math,Cambria Math_MSFontService,sans-serif" font-style="normal" font-variant="normal" font-weight="400" font-stretch="normal" font-size="61" text-anchor="start" direction="ltr" writing-mode="lr-tb" unicode-bidi="normal" text-decoration="none" transform="matrix(1 0 0 1 1369.5 1738)">0</text><text fill="#FF0000" fill-opacity="1" font-family="Cambria Math,Cambria Math_MSFontService,sans-serif" font-style="normal" font-variant="normal" font-weight="400" font-stretch="normal" font-size="83" text-anchor="start" direction="ltr" writing-mode="lr-tb" unicode-bidi="normal" text-decoration="none" transform="matrix(1 0 0 1 1430.77 1721)">=</text><text fill="#FF0000" fill-opacity="1" font-family="Cambria Math,Cambria Math_MSFontService,sans-serif" font-style="normal" font-variant="normal" font-weight="400" font-stretch="normal" font-size="83" text-anchor="start" direction="ltr" writing-mode="lr-tb" unicode-bidi="normal" text-decoration="none" transform="matrix(1 0 0 1 1515.57 1721)">âˆ’</text><text fill="#FF0000" fill-opacity="1" font-family="Cambria Math,Cambria Math_MSFontService,sans-serif" font-style="normal" font-variant="normal" font-weight="400" font-stretch="normal" font-size="83" text-anchor="start" direction="ltr" writing-mode="lr-tb" unicode-bidi="normal" text-decoration="none" transform="matrix(1 0 0 1 1577.44 1721)">sin</text><text fill="#FF0000" fill-opacity="1" font-family="Cambria Math,Cambria Math_MSFontService,sans-serif" font-style="normal" font-variant="normal" font-weight="400" font-stretch="normal" font-size="83" text-anchor="start" direction="ltr" writing-mode="lr-tb" unicode-bidi="normal" text-decoration="none" transform="matrix(1 0 0 1 1681.71 1721)">â¡</text><text fill="#FF0000" fill-opacity="1" font-family="Cambria Math,Cambria Math_MSFontService,sans-serif" font-style="normal" font-variant="normal" font-weight="400" font-stretch="normal" font-size="83" text-anchor="start" direction="ltr" writing-mode="lr-tb" unicode-bidi="normal" text-decoration="none" transform="matrix(1 0 0 1 1681.71 1721)">(</text><text fill="#FF0000" fill-opacity="1" font-family="Cambria Math,Cambria Math_MSFontService,sans-serif" font-style="normal" font-variant="normal" font-weight="400" font-stretch="normal" font-size="83" text-anchor="start" direction="ltr" writing-mode="lr-tb" unicode-bidi="normal" text-decoration="none" transform="matrix(1 0 0 1 1716.09 1721)">ğ‘¥</text><text fill="#FF0000" fill-opacity="1" font-family="Cambria Math,Cambria Math_MSFontService,sans-serif" font-style="normal" font-variant="normal" font-weight="400" font-stretch="normal" font-size="61" text-anchor="start" direction="ltr" writing-mode="lr-tb" unicode-bidi="normal" text-decoration="none" transform="matrix(1 0 0 1 1759.4 1738)">0</text><text fill="#FF0000" fill-opacity="1" font-family="Cambria Math,Cambria Math_MSFontService,sans-serif" font-style="normal" font-variant="normal" font-weight="400" font-stretch="normal" font-size="83" text-anchor="start" direction="ltr" writing-mode="lr-tb" unicode-bidi="normal" text-decoration="none" transform="matrix(1 0 0 1 1797.76 1721)">)</text><text fill="#FF0000" fill-opacity="1" font-family="Cambria Math,Cambria Math_MSFontService,sans-serif" font-style="normal" font-variant="normal" font-weight="400" font-stretch="normal" font-size="83" text-anchor="start" direction="ltr" writing-mode="lr-tb" unicode-bidi="normal" text-decoration="none" transform="matrix(1 0 0 1 1832.14 1721)">âˆ‡</text><text fill="#FF0000" fill-opacity="1" font-family="Cambria Math,Cambria Math_MSFontService,sans-serif" font-style="normal" font-variant="normal" font-weight="400" font-stretch="normal" font-size="83" text-anchor="start" direction="ltr" writing-mode="lr-tb" unicode-bidi="normal" text-decoration="none" transform="matrix(1 0 0 1 1881.41 1721)">ğ‘¥</text><text fill="#FF0000" fill-opacity="1" font-family="Cambria Math,Cambria Math_MSFontService,sans-serif" font-style="normal" font-variant="normal" font-weight="400" font-stretch="normal" font-size="61" text-anchor="start" direction="ltr" writing-mode="lr-tb" unicode-bidi="normal" text-decoration="none" transform="matrix(1 0 0 1 1922.82 1738)">1</text><path d="M2039.42 1685.92 2146.42 1685.92 2146.42 1695.08 2039.42 1695.08ZM2044 1704.25 2016.5 1690.5 2044 1676.75Z" fill="#FF0000" fill-rule="nonzero" fill-opacity="1"/><path d="M846.5 2136C846.5 2060.61 907.613 1999.5 983 1999.5 1058.39 1999.5 1119.5 2060.61 1119.5 2136 1119.5 2211.39 1058.39 2272.5 983 2272.5 907.613 2272.5 846.5 2211.39 846.5 2136Z" stroke="#FF0000" stroke-width="6.875" stroke-linecap="butt" stroke-linejoin="miter" stroke-miterlimit="8" stroke-opacity="1" fill="#FFFFFF" fill-rule="evenodd" fill-opacity="1"/><text fill="#FF0000" fill-opacity="1" font-family="Cambria Math,Cambria Math_MSFontService,sans-serif" font-style="normal" font-variant="normal" font-weight="400" font-stretch="normal" font-size="83" text-anchor="start" direction="ltr" writing-mode="lr-tb" unicode-bidi="normal" text-decoration="none" transform="matrix(1 0 0 1 923.168 2166)">âˆ‡</text><text fill="#FF0000" fill-opacity="1" font-family="Times New Roman,Times New Roman_MSFontService,sans-serif" font-style="normal" font-variant="normal" font-weight="700" font-stretch="normal" font-size="83" text-anchor="start" direction="ltr" writing-mode="lr-tb" unicode-bidi="normal" text-decoration="none" transform="matrix(1 0 0 1 972.439 2166)">x</text><text fill="#FF0000" fill-opacity="1" font-family="Times New Roman,Times New Roman_MSFontService,sans-serif" font-style="normal" font-variant="normal" font-weight="700" font-stretch="normal" font-size="55" text-anchor="start" direction="ltr" writing-mode="lr-tb" unicode-bidi="normal" text-decoration="none" transform="matrix(1 0 0 1 1013.69 2186)">0</text><path d="M0-4.58333 311.198-4.58333 311.198 240.823 302.031 240.823 302.031 0 306.614 4.58333 0 4.58333ZM320.364 236.24 306.614 263.74 292.864 236.24Z" fill="#FF0000" fill-rule="nonzero" fill-opacity="1" transform="matrix(1.83697e-16 1 1 -1.83697e-16 975.5 1384.5)"/><path d="M3789.42 1229.92 3922.41 1229.92 3922.41 1239.08 3789.42 1239.08ZM3794 1248.25 3766.5 1234.5 3794 1220.75Z" fill="#FF0000" fill-rule="nonzero" fill-opacity="1"/><path d="M865.5 2136C865.5 2071.66 917.883 2019.5 982.5 2019.5 1047.12 2019.5 1099.5 2071.66 1099.5 2136 1099.5 2200.34 1047.12 2252.5 982.5 2252.5 917.883 2252.5 865.5 2200.34 865.5 2136Z" stroke="#FF0000" stroke-width="4.58333" stroke-linecap="butt" stroke-linejoin="miter" stroke-miterlimit="8" stroke-opacity="1" fill="none" fill-rule="evenodd"/><path d="M693.417 2142.92 826.406 2142.92 826.406 2152.08 693.417 2152.08ZM698 2161.25 670.5 2147.5 698 2133.75Z" fill="#FF0000" fill-rule="nonzero" fill-opacity="1"/><path d="M4.58333-1.06096e-05 4.58364 132.989-4.58303 132.989-4.58333 1.06096e-05ZM13.7503 128.405 0.000360892 155.906-13.7497 128.406Z" fill="#000000" fill-rule="nonzero" fill-opacity="1" transform="matrix(1 0 0 -1 3615.5 614.406)"/><path d="M4.58333-1.06096e-05 4.58364 132.989-4.58303 132.989-4.58333 1.06096e-05ZM13.7503 128.405 0.000360892 155.906-13.7497 128.406Z" fill="#000000" fill-rule="nonzero" fill-opacity="1" transform="matrix(1 0 0 -1 6257.5 614.406)"/><path d="M4920 1243C4920 1129.23 5012.23 1037 5126 1037L6068 1037C6181.77 1037 6274 1129.23 6274 1243L6274 2067C6274 2180.77 6181.77 2273 6068 2273L5126 2273C5012.23 2273 4920 2180.77 4920 2067Z" stroke="#000000" stroke-width="8.02083" stroke-linecap="butt" stroke-linejoin="miter" stroke-miterlimit="8" stroke-opacity="1" fill="none" fill-rule="evenodd"/><path d="M5028.5 1231.5C5028.5 1195.6 5057.6 1166.5 5093.5 1166.5 5129.4 1166.5 5158.5 1195.6 5158.5 1231.5 5158.5 1267.4 5129.4 1296.5 5093.5 1296.5 5057.6 1296.5 5028.5 1267.4 5028.5 1231.5Z" stroke="#000000" stroke-width="4.58333" stroke-linecap="butt" stroke-linejoin="miter" stroke-miterlimit="8" stroke-opacity="1" fill="#FFFFFF" fill-rule="evenodd" fill-opacity="1"/><path d="M5186.5 1225.92 5293.5 1225.92 5293.5 1235.08 5186.5 1235.08ZM5288.92 1216.75 5316.42 1230.5 5288.92 1244.25Z" fill="#000000" fill-rule="nonzero" fill-opacity="1"/><text fill="#000000" fill-opacity="1" font-family="Calibri,Calibri_MSFontService,sans-serif" font-style="normal" font-variant="normal" font-weight="400" font-stretch="normal" font-size="83" text-anchor="start" direction="ltr" writing-mode="lr-tb" unicode-bidi="normal" text-decoration="none" transform="matrix(1 0 0 1 5407.13 1257)">Forward computation</text><path d="M5028.5 1448.5C5028.5 1412.6 5057.6 1383.5 5093.5 1383.5 5129.4 1383.5 5158.5 1412.6 5158.5 1448.5 5158.5 1484.4 5129.4 1513.5 5093.5 1513.5 5057.6 1513.5 5028.5 1484.4 5028.5 1448.5Z" stroke="#000000" stroke-width="4.58333" stroke-linecap="butt" stroke-linejoin="miter" stroke-miterlimit="8" stroke-opacity="1" fill="none" fill-rule="evenodd"/><path d="M5040.5 1449.5C5040.5 1420.23 5064.45 1396.5 5094 1396.5 5123.55 1396.5 5147.5 1420.23 5147.5 1449.5 5147.5 1478.77 5123.55 1502.5 5094 1502.5 5064.45 1502.5 5040.5 1478.77 5040.5 1449.5Z" stroke="#000000" stroke-width="4.58333" stroke-linecap="butt" stroke-linejoin="miter" stroke-miterlimit="8" stroke-opacity="1" fill="none" fill-rule="evenodd"/><text fill="#000000" fill-opacity="1" font-family="Calibri,Calibri_MSFontService,sans-serif" font-style="normal" font-variant="normal" font-weight="400" font-stretch="normal" font-size="83" text-anchor="start" direction="ltr" writing-mode="lr-tb" unicode-bidi="normal" text-decoration="none" transform="matrix(1 0 0 1 5332.14 1475)">Output node of forward</text><text fill="#000000" fill-opacity="1" font-family="Calibri,Calibri_MSFontService,sans-serif" font-style="normal" font-variant="normal" font-weight="400" font-stretch="normal" font-size="83" text-anchor="start" direction="ltr" writing-mode="lr-tb" unicode-bidi="normal" text-decoration="none" transform="matrix(1 0 0 1 5336.54 2128)">Save node for backward</text><path d="M5028.5 1671.5C5028.5 1635.6 5057.6 1606.5 5093.5 1606.5 5129.4 1606.5 5158.5 1635.6 5158.5 1671.5 5158.5 1707.4 5129.4 1736.5 5093.5 1736.5 5057.6 1736.5 5028.5 1707.4 5028.5 1671.5Z" stroke="#FF0000" stroke-width="4.58333" stroke-linecap="butt" stroke-linejoin="miter" stroke-miterlimit="8" stroke-opacity="1" fill="#FFFFFF" fill-rule="evenodd" fill-opacity="1"/><path d="M5193.5 1666.92 5300.5 1666.92 5300.5 1676.08 5193.5 1676.08ZM5295.92 1657.75 5323.42 1671.5 5295.92 1685.25Z" fill="#FF0000" fill-rule="nonzero" fill-opacity="1"/><text fill="#000000" fill-opacity="1" font-family="Calibri,Calibri_MSFontService,sans-serif" font-style="normal" font-variant="normal" font-weight="400" font-stretch="normal" font-size="83" text-anchor="start" direction="ltr" writing-mode="lr-tb" unicode-bidi="normal" text-decoration="none" transform="matrix(1 0 0 1 5365.11 1698)">Backward computation</text><text fill="#000000" fill-opacity="1" font-family="Calibri,Calibri_MSFontService,sans-serif" font-style="normal" font-variant="normal" font-weight="400" font-stretch="normal" font-size="83" text-anchor="start" direction="ltr" writing-mode="lr-tb" unicode-bidi="normal" text-decoration="none" transform="matrix(1 0 0 1 5276.44 1910)">Output node of backward</text><path d="M5111.35 2160.88 5103.81 2151.49 5097.92 2141.37 5096 2137.19 5102.26 2134.32 5104.1 2138.36 5103.95 2138.06 5109.62 2147.81 5109.33 2147.38 5116.71 2156.57ZM5088.7 2117.23 5086.71 2108.97 5085.12 2097.69 5084.74 2089.43 5091.61 2089.12 5091.98 2097.21 5091.95 2096.89 5093.5 2107.84 5093.44 2107.52 5095.39 2115.62ZM5086.16 2068.24 5086.85 2063.58 5089.63 2052.39 5093.52 2041.44 5093.8 2040.85 5100.02 2043.78 5099.81 2044.22 5099.94 2043.91 5096.16 2054.54 5096.26 2054.21 5093.56 2065.07 5093.63 2064.74 5092.96 2069.24ZM5103.62 2022.35 5104.68 2020.59 5111.85 2011 5117.36 2015.12 5110.29 2024.57 5110.48 2024.28 5109.52 2025.89ZM5120.9 2145.96 5129.73 2175.42 5100.88 2164.81Z" fill="#FF0000" fill-rule="nonzero" fill-opacity="1"/><path d="M5028.5 1884C5028.5 1848.38 5057.6 1819.5 5093.5 1819.5 5129.4 1819.5 5158.5 1848.38 5158.5 1884 5158.5 1919.62 5129.4 1948.5 5093.5 1948.5 5057.6 1948.5 5028.5 1919.62 5028.5 1884Z" stroke="#FF0000" stroke-width="4.58333" stroke-linecap="butt" stroke-linejoin="miter" stroke-miterlimit="8" stroke-opacity="1" fill="none" fill-rule="evenodd"/><path d="M5040.5 1885C5040.5 1855.45 5064.45 1831.5 5094 1831.5 5123.55 1831.5 5147.5 1855.45 5147.5 1885 5147.5 1914.55 5123.55 1938.5 5094 1938.5 5064.45 1938.5 5040.5 1914.55 5040.5 1885Z" stroke="#FF0000" stroke-width="4.58333" stroke-linecap="butt" stroke-linejoin="miter" stroke-miterlimit="8" stroke-opacity="1" fill="none" fill-rule="evenodd"/></g></g></svg>